<?xml version="1.0" standalone="no"?>
<!DOCTYPE svg PUBLIC "-//W3C//DTD SVG 20010904//EN"
 "http://www.w3.org/TR/2001/REC-SVG-20010904/DTD/svg10.dtd">
<svg version="1.0" xmlns="http://www.w3.org/2000/svg"
 width="1400.000000pt" height="862.000000pt" viewBox="0 0 1400.000000 862.000000"
 preserveAspectRatio="xMidYMid meet">

<g transform="translate(0.000000,862.000000) scale(0.100000,-0.100000)"
fill="#000000" stroke="none">
<path d="M6602 8180 c-147 -31 -262 -143 -296 -291 -8 -34 -19 -65 -23 -69
-12 -11 -153 -85 -548 -285 -192 -98 -354 -181 -360 -185 -5 -4 -235 -121
-510 -260 -275 -139 -504 -256 -510 -260 -5 -4 -172 -89 -369 -190 l-359 -183
-17 23 -17 22 -49 -66 c-30 -40 -57 -67 -69 -67 -32 -3 85 -17 144 -18 43 -1
52 2 47 14 -3 8 -8 21 -11 28 -3 8 85 58 257 144 145 73 466 236 713 363 1405
722 1657 850 1667 850 3 0 9 -15 12 -34 11 -58 64 -152 110 -194 53 -49 129
-89 185 -98 l41 -7 0 -287 c0 -158 -3 -362 -7 -454 l-6 -168 -24 5 c-12 2 -23
0 -23 -5 0 -21 72 -148 84 -148 7 0 28 33 47 73 18 39 35 74 36 77 2 3 -9 6
-24 5 -20 0 -29 6 -31 20 -3 11 -1 214 3 452 7 412 8 433 26 433 36 0 130 42
177 80 60 47 107 116 129 189 9 31 18 58 19 60 3 3 55 -24 259 -139 66 -37
199 -112 295 -165 96 -54 263 -147 370 -208 107 -60 218 -122 245 -137 28 -15
86 -47 130 -72 44 -25 143 -80 220 -123 77 -43 205 -115 285 -160 80 -46 170
-96 200 -113 30 -16 160 -89 289 -161 129 -72 239 -131 244 -131 5 0 6 -7 3
-15 -3 -8 -9 -21 -12 -29 -4 -11 12 -15 75 -21 44 -4 84 -4 90 0 7 4 -9 36
-40 82 l-52 76 -14 -27 c-13 -26 -16 -26 -37 -13 -12 9 -70 41 -127 72 -57 32
-212 118 -344 193 -368 207 -543 305 -620 347 -38 21 -151 84 -250 140 -201
114 -396 223 -590 330 -71 40 -182 101 -245 137 -294 166 -372 209 -375 206
-14 -17 -25 -51 -19 -61 5 -9 4 -9 -5 -1 -10 9 -9 19 4 44 51 99 -73 304 -217
358 -66 25 -149 33 -206 22z m-279 -421 c-5 -5 -9 -1 -9 9 -1 9 -4 26 -8 37
-4 11 0 7 9 -9 10 -16 13 -32 8 -37z m365 -326 c-10 -2 -26 -2 -35 0 -10 3 -2
5 17 5 19 0 27 -2 18 -5z"/>
<path d="M10332 7943 l3 -148 25 0 25 0 3 148 3 147 -31 0 -31 0 3 -147z"/>
<path d="M8417 8063 c-4 -3 -7 -66 -7 -140 l0 -133 25 0 25 0 0 108 1 107 47
-92 c60 -114 69 -125 101 -121 l26 3 0 135 c0 128 -1 135 -20 135 -18 0 -20
-8 -23 -95 l-3 -95 -45 85 c-25 47 -52 91 -61 98 -18 13 -55 16 -66 5z"/>
<path d="M8740 7998 c-34 -18 -50 -54 -50 -111 0 -40 5 -53 29 -78 32 -32 66
-37 120 -18 21 7 31 18 31 31 0 15 -4 18 -17 13 -45 -20 -80 -17 -97 6 -9 13
-16 27 -16 31 0 4 30 8 68 10 l67 3 -2 40 c-2 22 -11 47 -21 57 -24 24 -81 32
-112 16z m84 -79 c-7 -11 -84 -12 -84 -1 0 13 24 39 40 45 17 6 53 -30 44 -44z"/>
<path d="M9372 8000 c-30 -13 -45 -53 -31 -84 6 -13 29 -32 50 -42 43 -19 46
-25 23 -45 -12 -10 -22 -10 -45 -2 -25 10 -31 9 -36 -3 -8 -22 9 -35 53 -41
80 -10 126 70 68 116 -15 12 -32 21 -39 21 -7 0 -18 6 -24 14 -16 19 15 37 44
25 31 -12 35 -11 35 11 0 13 -10 24 -26 30 -30 12 -42 12 -72 0z"/>
<path d="M9553 7999 c-22 -6 -33 -16 -33 -28 0 -15 7 -17 55 -13 54 4 55 4 55
-22 0 -23 -4 -26 -38 -26 -50 0 -82 -23 -82 -61 0 -43 34 -73 73 -64 18 3 49
6 71 5 l38 -1 -4 91 c-3 63 -9 95 -19 106 -20 19 -75 26 -116 13z m77 -138 c0
-40 -61 -56 -68 -17 -5 22 13 36 46 36 15 0 22 -6 22 -19z"/>
<path d="M9808 7989 c-24 -17 -28 -18 -28 -5 0 9 -8 16 -20 16 -19 0 -20 -7
-20 -105 l0 -105 25 0 c24 0 25 2 25 74 0 65 3 77 21 90 38 26 48 11 51 -77 3
-81 3 -82 31 -85 l27 -3 0 72 c0 83 18 116 51 98 16 -8 19 -22 19 -90 l0 -80
28 3 27 3 0 89 c-1 80 -3 90 -24 107 -29 24 -53 24 -82 0 -23 -19 -24 -19 -48
0 -30 24 -49 24 -83 -2z"/>
<path d="M10171 7992 c-18 -12 -25 -14 -29 -4 -2 6 -12 12 -23 12 -18 0 -19
-9 -19 -145 l0 -145 25 0 c23 0 25 4 25 46 0 40 2 45 18 39 38 -16 54 -17 77
-5 30 16 45 51 45 105 0 55 -15 90 -47 104 -31 14 -43 13 -72 -7z m63 -70 c8
-36 -6 -83 -28 -96 -38 -24 -76 75 -43 116 28 36 61 27 71 -20z"/>
<path d="M10500 8003 c-55 -21 -81 -87 -61 -155 10 -30 20 -43 46 -54 63 -26
125 -12 125 27 0 16 -4 19 -17 14 -55 -23 -103 -11 -103 25 0 18 7 20 65 20
l65 0 0 38 c0 27 -7 45 -23 60 -24 23 -72 35 -97 25z m62 -57 c17 -25 7 -36
-32 -36 -43 0 -52 16 -25 44 16 15 44 11 57 -8z"/>
<path d="M8900 7993 c0 -4 13 -51 28 -103 l28 -95 34 0 c32 0 34 2 50 60 l17
60 12 -45 c16 -64 24 -75 59 -78 29 -3 32 0 43 40 6 24 19 69 29 100 19 62 18
68 -16 68 -20 0 -24 -9 -40 -75 -10 -41 -19 -73 -22 -71 -2 3 -12 35 -21 73
-14 55 -21 69 -38 71 -26 4 -36 -13 -53 -86 -7 -29 -14 -51 -17 -49 -2 3 -12
33 -21 68 -15 57 -20 64 -45 67 -15 2 -27 0 -27 -5z"/>
<path d="M3418 6353 c7 -3 16 -2 19 1 4 3 -2 6 -13 5 -11 0 -14 -3 -6 -6z"/>
<path d="M3365 6338 c-30 -16 -66 -50 -77 -73 -5 -11 2 -5 17 13 15 18 43 41
63 52 21 10 33 19 27 19 -5 0 -19 -5 -30 -11z"/>
<path d="M6570 6340 c-18 -12 -2 -12 25 0 13 6 15 9 5 9 -8 0 -22 -4 -30 -9z"/>
<path d="M9883 6343 c15 -2 39 -2 55 0 15 2 2 4 -28 4 -30 0 -43 -2 -27 -4z"/>
<path d="M9804 6324 c-19 -15 -19 -15 1 -6 11 5 27 12 35 15 13 5 13 6 -1 6
-8 1 -24 -6 -35 -15z"/>
<path d="M9996 6326 c17 -8 48 -29 70 -47 21 -19 32 -25 24 -15 -22 29 -91 76
-109 76 -9 -1 -2 -7 15 -14z"/>
<path d="M3627 6303 c15 -16 36 -39 46 -53 l18 -25 -12 25 c-14 30 -59 80 -72
80 -5 0 4 -12 20 -27z"/>
<path d="M6511 6304 c-18 -14 -36 -36 -42 -48 -8 -17 -7 -16 10 4 11 14 32 35
48 47 15 13 25 23 21 23 -3 0 -20 -12 -37 -26z"/>
<path d="M6775 6324 c6 -5 26 -23 45 -39 l35 -30 -25 28 c-14 16 -34 33 -45
39 -11 6 -15 6 -10 2z"/>
<path d="M9700 6218 c-13 -29 -19 -63 -18 -103 l1 -60 7 70 c3 39 14 85 23
103 10 17 15 32 12 32 -3 0 -15 -19 -25 -42z"/>
<path d="M6865 6218 c8 -21 15 -47 15 -59 0 -12 3 -20 6 -16 10 9 -4 71 -21
93 -13 17 -13 14 0 -18z"/>
<path d="M3259 6213 c-5 -15 -9 -36 -7 -47 2 -11 8 1 14 27 12 52 9 61 -7 20z"/>
<path d="M10116 6205 c19 -47 17 -132 -5 -180 -20 -44 -59 -84 -106 -108 -16
-9 -25 -16 -19 -17 14 0 84 47 102 69 30 37 52 98 52 149 0 47 -21 122 -34
122 -3 0 2 -16 10 -35z"/>
<path d="M6440 6204 c-34 -90 12 -221 95 -269 23 -13 25 -14 10 -1 -47 38 -69
63 -86 101 -20 44 -25 129 -9 169 5 14 7 26 5 26 -3 0 -10 -12 -15 -26z"/>
<path d="M3695 6135 c0 -46 3 -77 7 -67 4 9 7 40 7 67 0 28 -3 58 -7 67 -4 10
-7 -21 -7 -67z"/>
<path d="M6886 6118 c-9 -29 -16 -81 -10 -75 8 7 23 87 17 87 -2 0 -5 -6 -7
-12z"/>
<path d="M3255 6086 c2 -22 9 -44 15 -50 7 -7 8 -2 1 19 -5 17 -12 39 -15 50
-3 11 -3 2 -1 -19z"/>
<path d="M9690 6044 c0 -11 38 -74 45 -74 2 0 -5 17 -17 38 -27 46 -28 48 -28
36z"/>
<path d="M3661 6006 c-35 -55 -134 -106 -170 -86 -13 6 -25 4 -40 -6 -25 -18
-461 -248 -651 -344 -69 -35 -127 -65 -129 -67 -3 -2 3 -11 13 -21 12 -12 16
-13 14 -3 -2 7 3 16 11 19 8 3 11 0 7 -7 -5 -7 -1 -9 9 -4 12 4 13 8 5 13 -7
4 109 70 272 155 156 81 325 170 376 197 l92 50 0 -194 0 -195 -57 -16 c-124
-34 -194 -160 -158 -282 29 -103 114 -166 219 -166 133 0 228 96 229 231 0
106 -69 194 -176 221 l-47 11 2 189 c2 104 7 189 11 189 5 0 173 -86 374 -192
302 -158 362 -193 342 -198 -100 -27 -169 -119 -169 -225 0 -49 27 -126 49
-139 19 -12 13 -44 -40 -206 l-52 -158 -39 -6 c-101 -16 -188 -123 -188 -230
0 -151 151 -266 294 -226 57 16 123 72 147 124 24 54 24 148 0 201 -24 53 -89
111 -143 126 -24 7 -44 14 -46 15 -2 1 20 74 48 162 l50 159 47 -23 c65 -33
152 -33 211 1 l42 24 14 -22 c7 -12 48 -84 91 -161 79 -141 82 -155 34 -156
-27 0 -97 -57 -125 -101 -70 -111 -26 -272 89 -330 147 -76 320 17 334 180 3
31 0 74 -6 97 -22 81 -120 163 -196 164 -28 0 -35 10 -122 165 -93 165 -103
188 -82 201 21 13 49 89 49 134 0 125 -78 217 -200 236 -37 6 -747 367 -773
393 -5 5 4 12 21 16 41 9 103 55 125 94 24 42 14 40 -12 -3z"/>
<path d="M6845 6003 c-9 -16 -29 -39 -44 -51 -18 -17 -20 -21 -6 -14 24 12 48
38 64 70 16 31 7 28 -14 -5z"/>
<path d="M3288 6005 c6 -11 21 -30 34 -42 24 -23 97 -57 104 -50 3 2 -16 12
-41 21 -25 10 -59 34 -76 54 -17 20 -27 28 -21 17z"/>
<path d="M9766 5939 c6 -11 64 -42 69 -37 2 2 -14 13 -36 25 -21 12 -37 17
-33 12z"/>
<path d="M6735 5915 c-25 -12 -26 -14 -5 -9 14 4 29 10 35 15 12 12 5 11 -30
-6z"/>
<path d="M6580 5910 c8 -5 20 -10 25 -10 6 0 3 5 -5 10 -8 5 -19 10 -25 10 -5
0 -3 -5 5 -10z"/>
<path d="M6632 5904 c-26 -18 -249 -136 -542 -286 -127 -65 -221 -107 -247
-111 -173 -22 -261 -189 -182 -345 l30 -62 -80 -167 -81 -168 -41 -7 c-185
-32 -257 -262 -122 -390 89 -85 221 -89 313 -10 143 121 95 342 -84 394 -23 6
-42 12 -44 13 -2 2 146 315 152 322 1 1 24 -9 51 -22 66 -34 144 -34 211 0 27
14 50 25 50 25 1 0 9 -19 19 -42 9 -24 39 -93 66 -154 27 -62 49 -116 49 -121
0 -5 -21 -14 -47 -21 -60 -16 -136 -90 -152 -147 -23 -83 -3 -175 52 -233 57
-61 165 -87 243 -57 98 37 154 115 154 215 0 114 -75 205 -187 228 -37 8 -37
8 -111 177 -60 135 -72 172 -63 184 38 52 53 105 49 171 -7 95 -47 154 -132
198 l-40 19 35 18 c81 42 483 252 587 307 l112 59 0 -190 0 -189 -32 -7 c-114
-25 -189 -115 -190 -230 -1 -132 100 -234 231 -235 105 0 187 63 217 168 37
127 -28 248 -157 290 l-52 17 2 184 c1 102 3 186 4 186 3 2 665 -346 719 -377
53 -32 68 -34 68 -13 0 8 -7 15 -15 15 -18 0 -717 363 -754 392 -29 22 -31 22
-59 2z"/>
<path d="M9886 5901 c-3 -5 -174 -97 -380 -205 -267 -140 -384 -196 -408 -196
-45 0 -128 -41 -160 -78 -65 -77 -76 -199 -25 -279 l25 -40 -86 -174 -87 -173
-48 -12 c-167 -39 -227 -250 -108 -377 110 -119 319 -85 384 62 37 84 16 201
-46 258 -34 32 -98 63 -129 63 -16 0 -28 2 -28 4 0 3 36 79 80 171 l79 166 42
-28 c37 -24 52 -28 118 -28 62 0 83 4 114 24 21 13 39 22 41 20 8 -10 136
-309 136 -318 0 -6 -9 -11 -21 -11 -60 0 -147 -73 -175 -146 -34 -88 -2 -205
72 -263 15 -12 52 -29 82 -37 107 -32 221 19 268 119 65 141 -16 301 -166 326
-32 6 -36 11 -81 111 -26 58 -59 135 -74 171 l-27 66 27 43 c73 116 26 278
-98 335 l-48 23 183 95 c101 52 268 138 371 192 l188 97 -2 -199 c-1 -109 2
-200 6 -203 3 -3 7 86 8 197 1 112 3 203 4 203 2 0 167 -86 368 -191 l365
-192 -47 -22 c-58 -27 -85 -55 -112 -115 -31 -68 -28 -134 11 -210 31 -63 31
-64 15 -109 -8 -25 -32 -99 -52 -164 -21 -65 -42 -120 -49 -122 -6 -1 -30 -8
-54 -14 -51 -14 -106 -61 -132 -112 -67 -129 -1 -285 138 -325 152 -44 293 63
293 224 0 101 -80 204 -172 218 -21 4 -39 11 -39 16 0 11 89 298 96 310 3 4
30 -5 60 -19 72 -33 154 -29 214 11 l40 26 14 -23 c41 -66 166 -296 166 -306
0 -6 -9 -11 -20 -11 -29 0 -90 -33 -124 -66 -41 -41 -58 -80 -63 -145 -11
-113 66 -214 181 -240 108 -24 238 48 265 148 39 137 -41 279 -169 301 -41 7
-41 8 -139 181 l-99 175 26 39 c30 45 40 129 23 192 -22 83 -126 165 -209 165
-23 0 -139 56 -390 187 -196 103 -368 195 -381 205 -26 20 -47 23 -55 9z"/>
<path d="M2600 5490 c-11 -7 -5 -8 20 -4 43 8 51 14 19 14 -13 0 -31 -5 -39
-10z"/>
<path d="M7471 5496 c2 -2 20 -6 39 -10 25 -4 31 -3 20 4 -14 9 -69 15 -59 6z"/>
<path d="M2775 5474 c17 -9 45 -30 64 -48 21 -20 29 -24 21 -10 -14 23 -64 60
-95 69 -11 3 -6 -1 10 -11z"/>
<path d="M7345 5478 c-47 -26 -116 -110 -102 -124 2 -3 10 8 16 25 14 33 53
72 96 94 17 9 26 16 20 16 -5 0 -19 -5 -30 -11z"/>
<path d="M9848 5483 c6 -2 18 -2 25 0 6 3 1 5 -13 5 -14 0 -19 -2 -12 -5z"/>
<path d="M9938 5483 c6 -2 18 -2 25 0 6 3 1 5 -13 5 -14 0 -19 -2 -12 -5z"/>
<path d="M2547 5462 c-29 -20 -77 -79 -77 -96 0 -6 9 3 19 20 10 17 36 45 57
62 43 36 43 41 1 14z"/>
<path d="M7565 5465 c11 -9 25 -19 30 -23 22 -15 48 -53 61 -89 8 -24 13 -30
14 -17 0 31 -54 106 -92 127 -26 14 -29 15 -13 2z"/>
<path d="M9795 5468 c-30 -16 -66 -50 -77 -73 -5 -11 2 -5 17 13 15 18 43 41
63 52 21 10 33 19 27 19 -5 0 -19 -5 -30 -11z"/>
<path d="M10012 5460 c48 -26 88 -79 104 -138 7 -26 13 -37 13 -24 1 33 -26
93 -57 125 -26 28 -73 57 -89 57 -4 -1 9 -10 29 -20z"/>
<path d="M9689 5343 c-14 -36 -7 -159 9 -175 11 -11 11 -8 3 15 -14 35 -14
127 -1 161 5 14 7 26 5 26 -3 0 -10 -12 -16 -27z"/>
<path d="M2461 5334 c0 -11 3 -14 6 -6 3 7 2 16 -1 19 -3 4 -6 -2 -5 -13z"/>
<path d="M2891 5324 c0 -11 3 -14 6 -6 3 7 2 16 -1 19 -3 4 -6 -2 -5 -13z"/>
<path d="M7232 5320 c0 -14 2 -19 5 -12 2 6 2 18 0 25 -3 6 -5 1 -5 -13z"/>
<path d="M7673 5275 c0 -22 2 -30 4 -17 2 12 2 30 0 40 -3 9 -5 -1 -4 -23z"/>
<path d="M2452 5275 c0 -16 2 -22 5 -12 2 9 2 23 0 30 -3 6 -5 -1 -5 -18z"/>
<path d="M2902 5280 c0 -14 2 -19 5 -12 2 6 2 18 0 25 -3 6 -5 1 -5 -13z"/>
<path d="M7221 5274 c0 -11 3 -14 6 -6 3 7 2 16 -1 19 -3 4 -6 -2 -5 -13z"/>
<path d="M10121 5232 c-3 -61 -57 -140 -112 -163 -17 -6 -28 -14 -25 -16 9 -9
64 27 93 61 34 38 57 96 50 123 -4 14 -5 12 -6 -5z"/>
<path d="M2891 5224 c0 -11 3 -14 6 -6 3 7 2 16 -1 19 -3 4 -6 -2 -5 -13z"/>
<path d="M7231 5224 c0 -11 3 -14 6 -6 3 7 2 16 -1 19 -3 4 -6 -2 -5 -13z"/>
<path d="M7661 5204 c0 -11 3 -14 6 -6 3 7 2 16 -1 19 -3 4 -6 -2 -5 -13z"/>
<path d="M2867 5165 c-9 -19 -15 -35 -12 -35 7 0 37 61 33 66 -3 2 -12 -12
-21 -31z"/>
<path d="M7636 5155 c-9 -14 -13 -25 -8 -25 5 0 14 11 20 25 6 14 10 25 8 25
-2 0 -11 -11 -20 -25z"/>
<path d="M2494 5145 c16 -25 15 -29 -68 -200 -74 -154 -88 -175 -108 -175 -13
0 -47 -12 -76 -26 -145 -72 -171 -264 -51 -382 35 -34 104 -62 155 -62 49 0
115 27 153 63 133 126 79 348 -97 400 l-39 12 82 170 83 169 -21 28 c-26 35
-35 37 -13 3z"/>
<path d="M9718 5135 c18 -35 96 -95 108 -82 3 2 -9 10 -26 17 -17 7 -45 29
-61 49 -17 20 -27 27 -21 16z"/>
<path d="M2820 5117 c0 -2 6 -17 14 -33 18 -36 130 -292 139 -316 4 -10 11
-18 17 -18 13 0 13 6 0 28 -6 9 -42 89 -80 177 -38 88 -74 161 -80 163 -5 2
-10 2 -10 -1z"/>
<path d="M7283 5113 c2 -5 -21 -84 -52 -177 l-56 -170 -47 -11 c-172 -42 -232
-258 -108 -383 67 -66 153 -87 242 -57 139 48 195 222 112 347 -29 44 -92 87
-140 95 -19 3 -34 9 -34 12 0 8 94 307 105 334 5 12 2 17 -10 17 -9 0 -14 -3
-12 -7z"/>
<path d="M7580 5092 l-25 -26 27 17 c20 12 28 13 35 4 6 -7 50 -84 98 -172
102 -184 93 -170 101 -162 4 3 -37 83 -90 177 -53 94 -96 175 -96 180 0 17
-24 9 -50 -18z"/>
<path d="M2565 5080 c17 -11 37 -20 45 -20 8 0 -3 9 -25 20 -50 25 -58 25 -20
0z"/>
<path d="M2770 5079 c-19 -11 -28 -19 -19 -19 9 0 27 9 40 20 29 23 25 23 -21
-1z"/>
<path d="M7334 5076 c11 -9 24 -16 30 -16 12 0 7 5 -24 19 -24 11 -24 11 -6
-3z"/>
<path d="M2653 5053 c15 -2 39 -2 55 0 15 2 2 4 -28 4 -30 0 -43 -2 -27 -4z"/>
<path d="M7388 5053 c7 -3 16 -2 19 1 4 3 -2 6 -13 5 -11 0 -14 -3 -6 -6z"/>
<path d="M7433 5043 c9 -2 25 -2 35 0 9 3 1 5 -18 5 -19 0 -27 -2 -17 -5z"/>
<path d="M9848 5043 c7 -3 16 -2 19 1 4 3 -2 6 -13 5 -11 0 -14 -3 -6 -6z"/>
<path d="M9948 5043 c7 -3 16 -2 19 1 4 3 -2 6 -13 5 -11 0 -14 -3 -6 -6z"/>
<path d="M9893 5033 c9 -2 23 -2 30 0 6 3 -1 5 -18 5 -16 0 -22 -2 -12 -5z"/>
<path d="M2928 4753 c7 -3 16 -2 19 1 4 3 -2 6 -13 5 -11 0 -14 -3 -6 -6z"/>
<path d="M3038 4753 c7 -3 16 -2 19 1 4 3 -2 6 -13 5 -11 0 -14 -3 -6 -6z"/>
<path d="M2858 4725 c-33 -23 -78 -81 -78 -101 0 -5 12 10 25 33 14 23 45 54
68 68 23 13 37 25 32 25 -6 0 -27 -11 -47 -25z"/>
<path d="M3085 4738 c35 -19 87 -72 101 -103 7 -16 13 -23 14 -14 0 32 -93
130 -124 129 -6 0 -2 -6 9 -12z"/>
<path d="M7687 4720 c-26 -16 -47 -32 -47 -35 0 -4 13 3 29 15 16 11 45 27 63
35 18 8 26 14 17 15 -8 0 -36 -13 -62 -30z"/>
<path d="M7888 4739 c43 -13 118 -88 131 -131 6 -22 9 -26 10 -12 2 47 -106
155 -154 153 -13 0 -8 -4 13 -10z"/>
<path d="M7615 4647 c-8 -13 -17 -39 -20 -58 -5 -30 -4 -29 9 9 8 23 20 49 26
57 7 8 10 15 6 15 -3 0 -12 -10 -21 -23z"/>
<path d="M2771 4594 c0 -11 3 -14 6 -6 3 7 2 16 -1 19 -3 4 -6 -2 -5 -13z"/>
<path d="M3201 4584 c0 -11 3 -14 6 -6 3 7 2 16 -1 19 -3 4 -6 -2 -5 -13z"/>
<path d="M8033 4535 c0 -22 2 -30 4 -17 2 12 2 30 0 40 -3 9 -5 -1 -4 -23z"/>
<path d="M2762 4535 c0 -16 2 -22 5 -12 2 9 2 23 0 30 -3 6 -5 -1 -5 -18z"/>
<path d="M3212 4535 c0 -16 2 -22 5 -12 2 9 2 23 0 30 -3 6 -5 -1 -5 -18z"/>
<path d="M7581 4534 c0 -11 3 -14 6 -6 3 7 2 16 -1 19 -3 4 -6 -2 -5 -13z"/>
<path d="M3201 4484 c0 -11 3 -14 6 -6 3 7 2 16 -1 19 -3 4 -6 -2 -5 -13z"/>
<path d="M7591 4484 c0 -11 3 -14 6 -6 3 7 2 16 -1 19 -3 4 -6 -2 -5 -13z"/>
<path d="M2776 4465 c7 -38 38 -84 73 -109 18 -13 15 -8 -11 20 -21 22 -44 57
-53 79 -12 31 -14 33 -9 10z"/>
<path d="M8011 4445 c-18 -51 -73 -102 -129 -120 -37 -12 -40 -14 -12 -10 19
3 51 16 72 30 37 25 93 106 86 126 -2 6 -9 -6 -17 -26z"/>
<path d="M3186 4445 c-9 -26 -7 -32 5 -12 6 10 9 21 6 23 -2 3 -7 -2 -11 -11z"/>
<path d="M7600 4457 c0 -16 29 -63 57 -88 31 -29 72 -53 79 -46 3 2 -8 10 -25
16 -33 14 -72 53 -94 96 -9 17 -16 26 -17 22z"/>
<path d="M3139 4373 l-34 -38 38 34 c20 19 37 36 37 38 0 8 -8 0 -41 -34z"/>
<path d="M2910 4320 c8 -5 24 -10 34 -10 26 0 18 6 -19 14 -22 5 -26 4 -15 -4z"/>
<path d="M3028 4313 c7 -3 16 -2 19 1 4 3 -2 6 -13 5 -11 0 -14 -3 -6 -6z"/>
<path d="M7758 4313 c7 -3 16 -2 19 1 4 3 -2 6 -13 5 -11 0 -14 -3 -6 -6z"/>
<path d="M2978 4303 c6 -2 18 -2 25 0 6 3 1 5 -13 5 -14 0 -19 -2 -12 -5z"/>
<path d="M7808 4303 c7 -3 16 -2 19 1 4 3 -2 6 -13 5 -11 0 -14 -3 -6 -6z"/>
<path d="M3380 3695 l0 -365 -25 0 c-14 0 -25 -4 -25 -10 0 -14 73 -160 80
-160 3 0 25 38 48 85 l42 85 -30 0 -30 0 0 365 0 365 -30 0 -30 0 0 -365z"/>
<path d="M6680 3695 l0 -365 -25 0 c-14 0 -25 -4 -25 -10 0 -14 73 -160 80
-160 3 0 25 38 48 85 l42 85 -30 0 -30 0 0 365 0 365 -30 0 -30 0 0 -365z"/>
<path d="M9880 3695 l0 -365 -30 0 -30 0 42 -85 c23 -47 45 -85 48 -85 5 0 60
113 77 156 4 10 -2 14 -21 14 l-26 0 0 365 0 365 -30 0 -30 0 0 -365z"/>
<path d="M3580 2800 l0 -150 25 0 25 0 0 150 0 150 -25 0 -25 0 0 -150z"/>
<path d="M6890 2800 l0 -150 25 0 25 0 0 150 0 150 -25 0 -25 0 0 -150z"/>
<path d="M7273 2918 c-29 -14 -34 -65 -5 -52 9 4 31 8 47 8 26 1 30 -3 33 -27
4 -32 -13 -61 -70 -123 -58 -63 -49 -74 62 -74 83 0 90 1 90 20 0 18 -7 20
-56 20 l-56 0 40 48 c50 60 62 84 62 121 0 45 -31 71 -82 70 -24 0 -53 -5 -65
-11z"/>
<path d="M2704 2907 c-2 -7 -3 -67 -2 -133 l3 -119 28 -3 c26 -3 27 -2 27 51
0 29 3 56 6 59 16 17 45 -9 65 -58 20 -47 26 -54 51 -54 15 0 28 4 28 9 0 16
-32 86 -47 102 -13 15 -11 20 11 42 31 32 33 56 5 91 -19 24 -26 26 -95 26
-52 0 -76 -4 -80 -13z m127 -43 c19 -23 -1 -48 -40 -52 -30 -3 -31 -2 -31 32
0 33 2 36 29 36 16 0 34 -7 42 -16z"/>
<path d="M3978 2902 c-29 -18 -40 -59 -13 -48 8 3 22 9 30 12 13 5 15 -8 15
-85 l0 -91 -30 0 c-23 0 -30 -4 -30 -20 0 -18 7 -20 85 -20 78 0 85 2 85 20 0
16 -7 20 -30 20 l-30 0 0 115 0 115 -27 -1 c-16 0 -40 -8 -55 -17z"/>
<path d="M6020 2785 l0 -135 25 0 c24 0 25 3 25 54 0 30 3 57 8 59 21 13 51
-15 68 -62 16 -45 21 -51 46 -51 15 0 28 5 28 11 0 21 -43 109 -54 109 -6 1
-1 9 12 20 34 29 40 76 12 105 -21 22 -32 25 -97 25 l-73 0 0 -135z m125 76
c10 -33 -5 -51 -41 -51 -32 0 -34 2 -34 35 0 33 2 35 34 35 25 0 36 -5 41 -19z"/>
<path d="M3694 2896 c-3 -8 -3 -20 1 -26 3 -5 -1 -10 -9 -10 -10 0 -16 -9 -16
-25 0 -14 5 -24 10 -22 6 1 12 -29 14 -73 5 -83 19 -103 71 -98 37 4 48 35 13
40 -21 3 -23 9 -26 71 -3 66 -3 67 23 67 20 0 26 4 23 18 -2 9 -13 18 -25 20
-14 2 -23 12 -25 25 -4 26 -45 36 -54 13z"/>
<path d="M7010 2885 c0 -16 -6 -25 -15 -25 -8 0 -15 -9 -15 -19 0 -10 7 -21
15 -25 11 -4 15 -22 15 -75 0 -81 15 -104 64 -99 23 2 32 9 34 24 2 16 -2 20
-20 20 -22 -1 -23 3 -23 64 0 60 2 65 23 68 32 5 30 42 -3 42 -20 0 -25 5 -25
25 0 20 -5 25 -25 25 -20 0 -25 -5 -25 -25z"/>
<path d="M10100 2760 l0 -150 25 0 25 0 0 150 0 150 -25 0 -25 0 0 -150z"/>
<path d="M10483 2878 c-14 -7 -23 -20 -23 -34 0 -23 0 -23 30 -6 34 19 63 9
68 -24 4 -30 -12 -45 -49 -47 -27 -2 -34 -6 -34 -22 0 -16 8 -21 39 -25 42 -5
63 -27 53 -54 -10 -24 -35 -31 -79 -19 -34 9 -38 8 -38 -8 0 -43 111 -55 154
-16 39 34 43 71 11 103 -24 24 -25 28 -11 43 24 27 21 87 -6 105 -26 18 -82
20 -115 4z"/>
<path d="M9230 2745 l0 -135 25 0 c24 0 25 3 25 56 0 54 0 55 27 52 23 -2 31
-12 48 -55 17 -46 23 -53 47 -53 18 0 28 5 28 15 0 21 -42 105 -53 105 -6 0 2
11 17 25 35 32 35 76 0 104 -21 17 -41 21 -95 21 l-69 0 0 -135z m120 80 c20
-24 8 -49 -27 -56 -39 -8 -43 -5 -43 38 0 30 3 33 29 33 16 0 34 -7 41 -15z"/>
<path d="M2993 2860 c-46 -19 -70 -102 -48 -171 15 -46 119 -65 155 -29 25 25
18 45 -10 30 -42 -22 -100 -2 -100 36 0 11 15 14 65 14 l65 0 0 36 c0 48 -14
70 -51 83 -37 13 -46 13 -76 1z m75 -67 c3 -21 -1 -23 -37 -23 -27 0 -41 4
-41 13 0 41 72 50 78 10z"/>
<path d="M3193 2855 c-28 -12 -33 -19 -33 -49 0 -39 14 -57 60 -76 58 -24 16
-59 -49 -39 -21 6 -22 -30 -1 -41 53 -28 130 7 130 60 0 30 -12 43 -62 69 -40
20 -34 36 15 35 30 -1 37 3 37 18 0 11 -11 23 -26 28 -31 12 -32 12 -71 -5z"/>
<path d="M6302 2855 c-37 -16 -52 -48 -52 -110 0 -57 7 -73 41 -90 52 -27 144
-12 137 23 -2 9 -11 15 -19 14 -70 -17 -92 -12 -103 25 -7 21 -4 22 61 25 66
3 68 4 66 28 -6 57 -14 72 -48 86 -41 17 -42 17 -83 -1z m76 -62 c3 -21 -1
-23 -37 -23 -45 0 -46 2 -30 31 15 29 63 22 67 -8z"/>
<path d="M6502 2858 c-51 -25 -41 -97 18 -123 63 -28 43 -72 -21 -48 -27 10
-29 9 -29 -13 0 -28 33 -40 82 -30 44 9 58 24 58 61 0 35 -19 58 -63 74 -15 6
-27 18 -27 27 0 14 7 16 40 11 35 -4 40 -3 40 14 0 12 -10 23 -26 29 -31 12
-43 12 -72 -2z"/>
<path d="M10223 2863 c-7 -2 -13 -13 -13 -23 0 -10 -7 -20 -15 -24 -19 -7 -20
-32 -1 -43 8 -5 15 -35 19 -77 8 -83 18 -98 66 -94 42 4 57 34 19 40 -21 3
-23 9 -26 66 -3 61 -3 62 23 62 22 0 26 4 23 23 -2 14 -11 23 -25 25 -13 2
-23 11 -25 25 -3 22 -22 30 -45 20z"/>
<path d="M3340 2777 c0 -70 3 -89 21 -111 24 -31 63 -34 92 -8 15 12 21 14 24
5 3 -7 16 -13 29 -13 l25 0 -3 103 c-3 101 -3 102 -28 102 -24 0 -25 -3 -28
-71 -2 -55 -7 -76 -22 -89 -36 -33 -49 -13 -52 77 -3 82 -3 83 -30 86 l-28 3
0 -84z"/>
<path d="M6654 2845 c-13 -33 2 -164 21 -185 22 -24 57 -26 90 -4 15 10 25 12
25 5 0 -6 11 -11 25 -11 l26 0 -3 103 c-3 101 -3 102 -28 102 -24 0 -25 -3
-28 -71 -3 -76 -23 -111 -55 -98 -13 5 -17 24 -19 87 -3 76 -5 82 -26 85 -13
2 -25 -3 -28 -13z"/>
<path d="M9485 2788 c-24 -29 -27 -38 -23 -90 5 -73 21 -90 90 -95 60 -5 96
12 85 41 -5 13 -11 15 -26 6 -23 -12 -61 -13 -77 -2 -6 4 -14 17 -18 30 -7 21
-5 22 59 22 75 0 84 9 65 65 -14 42 -35 55 -88 55 -33 0 -45 -6 -67 -32z m106
-35 c8 -22 6 -23 -36 -23 -49 0 -50 1 -34 31 14 27 59 22 70 -8z"/>
<path d="M9697 2802 c-21 -23 -22 -65 -3 -85 8 -8 28 -20 45 -27 57 -23 27
-64 -30 -43 -27 10 -29 9 -29 -12 0 -26 17 -35 64 -35 50 0 78 25 74 68 -3 32
-9 40 -45 60 -57 31 -58 57 -2 49 37 -5 40 -3 37 16 -2 18 -11 22 -49 25 -34
2 -49 -2 -62 -16z"/>
<path d="M9867 2814 c-11 -12 -8 -153 4 -177 22 -41 61 -49 104 -21 17 11 25
12 25 4 0 -6 10 -10 23 -8 21 3 22 8 25 100 2 89 1 97 -18 103 -33 10 -40 -3
-40 -74 0 -55 -4 -71 -20 -86 -36 -33 -49 -14 -52 77 -3 75 -5 83 -23 86 -12
2 -24 0 -28 -4z"/>
<path d="M7279 2273 c-48 -123 -119 -329 -119 -345 0 -13 36 -10 48 5 5 6 17
35 26 62 8 28 36 106 61 175 25 69 45 126 45 127 0 2 -11 3 -25 3 -19 0 -28
-8 -36 -27z"/>
<path d="M4864 2266 c-10 -26 4 -48 28 -44 17 2 23 10 23 28 0 18 -6 26 -23
28 -13 2 -25 -3 -28 -12z"/>
<path d="M5364 2266 c-10 -26 4 -48 28 -44 17 2 23 10 23 28 0 18 -6 26 -23
28 -13 2 -25 -3 -28 -12z"/>
<path d="M6530 2265 c-16 -19 -6 -45 18 -45 29 0 48 26 32 45 -16 19 -34 19
-50 0z"/>
<path d="M8730 2265 c-15 -19 3 -45 31 -45 23 0 32 15 24 40 -7 24 -37 26 -55
5z"/>
<path d="M4260 2125 l0 -135 25 0 c24 0 24 0 27 111 l3 112 39 -112 c36 -103
40 -111 65 -111 28 0 24 -7 90 170 l20 55 0 -112 1 -113 25 0 25 0 0 135 0
135 -39 0 c-46 0 -45 2 -87 -109 l-32 -86 -14 35 c-8 19 -25 63 -37 98 l-23
62 -44 0 -44 0 0 -135z"/>
<path d="M7547 2253 c-7 -11 -28 -68 -66 -180 l-29 -83 27 0 c20 0 30 7 37 26
8 25 14 27 64 27 50 0 55 -3 63 -27 7 -20 15 -26 39 -26 35 0 37 -13 -21 150
-40 115 -41 115 -75 118 -19 2 -37 -1 -39 -5z m54 -108 l16 -55 -39 0 c-36 0
-39 2 -33 23 15 50 29 87 35 87 3 0 12 -25 21 -55z"/>
<path d="M5487 2244 c-4 -4 -7 -15 -7 -25 0 -9 -7 -19 -15 -23 -8 -3 -15 -12
-15 -21 0 -9 7 -18 15 -21 11 -5 15 -22 15 -63 0 -81 16 -106 65 -106 29 0 41
4 43 17 2 11 -5 18 -20 20 -21 3 -23 9 -26 65 -3 58 -1 62 20 65 31 4 32 42 1
46 -14 2 -23 11 -25 25 -3 22 -36 35 -51 21z"/>
<path d="M6397 2244 c-4 -4 -7 -16 -7 -26 0 -10 -7 -18 -15 -18 -9 0 -15 -9
-15 -25 0 -16 6 -25 15 -25 12 0 15 -14 15 -69 0 -81 13 -101 66 -101 27 0 34
4 34 19 0 13 -8 21 -22 23 -21 3 -23 9 -26 66 -3 61 -2 62 23 62 20 0 25 5 25
25 0 20 -5 25 -24 25 -18 0 -25 6 -28 22 -3 23 -27 35 -41 22z"/>
<path d="M10110 2005 l0 -215 -3370 0 -3371 0 3 210 c3 195 2 210 -15 210 -16
0 -17 -16 -15 -227 l3 -228 1688 -3 1687 -2 0 -220 c0 -189 2 -220 15 -220 13
0 15 31 15 220 l0 220 1693 2 1692 3 3 233 c2 202 0 232 -13 232 -13 0 -15
-29 -15 -215z"/>
<path d="M4653 2193 c-7 -2 -13 -13 -13 -23 0 -15 8 -18 53 -16 46 1 52 -1 55
-20 3 -18 -3 -22 -42 -26 -26 -3 -53 -11 -61 -18 -21 -17 -19 -73 3 -93 20
-18 77 -23 87 -8 3 5 20 7 38 4 l32 -5 -5 96 c-4 71 -9 99 -20 106 -16 10
-106 12 -127 3z m97 -131 c0 -23 -19 -42 -42 -42 -24 0 -34 26 -18 45 18 22
60 19 60 -3z"/>
<path d="M4867 2194 c-4 -4 -7 -61 -7 -127 0 -111 -1 -119 -20 -124 -29 -8
-21 -37 11 -41 16 -2 32 5 45 19 17 18 19 36 19 148 0 119 -1 126 -20 129 -12
2 -24 0 -28 -4z"/>
<path d="M4989 2171 c-25 -25 -29 -37 -29 -81 0 -44 4 -56 29 -81 39 -39 96
-40 140 -3 28 23 31 31 31 85 0 79 -26 109 -95 109 -38 0 -52 -5 -76 -29z
m111 -30 c15 -29 12 -87 -6 -105 -37 -37 -77 -9 -77 54 0 22 6 46 13 55 18 21
57 19 70 -4z"/>
<path d="M5210 2095 l0 -105 25 0 c24 0 25 2 25 63 0 67 17 97 53 97 11 0 17
8 17 25 0 30 -33 35 -62 8 -17 -15 -18 -15 -18 0 0 10 -8 17 -20 17 -19 0 -20
-7 -20 -105z"/>
<path d="M5367 2194 c-4 -4 -7 -52 -7 -106 l0 -98 30 0 31 0 -3 103 c-3 94 -5
102 -23 105 -12 2 -24 0 -28 -4z"/>
<path d="M5606 2192 c-3 -5 13 -55 34 -111 39 -98 39 -103 25 -138 -19 -45
-19 -43 9 -43 31 0 40 13 64 90 11 36 29 89 41 118 28 71 27 92 -4 92 -19 0
-26 -7 -34 -37 -6 -21 -11 -41 -11 -45 0 -4 -5 -19 -11 -35 -11 -28 -11 -27
-38 42 -20 53 -32 71 -48 73 -12 2 -24 -1 -27 -6z"/>
<path d="M5916 2192 c-3 -5 9 -53 27 -106 l32 -97 38 3 38 3 29 85 c37 104 38
120 5 120 -20 0 -26 -7 -35 -42 -6 -24 -17 -58 -24 -77 l-13 -35 -23 70 c-13
38 -28 72 -34 76 -15 10 -34 10 -40 0z"/>
<path d="M6156 2169 c-42 -50 -32 -146 18 -181 6 -4 30 -8 54 -8 35 0 49 6 74
30 29 29 30 34 26 92 -6 76 -27 98 -98 98 -42 0 -52 -4 -74 -31z m112 -34 c24
-52 2 -115 -38 -115 -24 0 -50 37 -50 70 0 62 65 95 88 45z"/>
<path d="M6530 2095 l0 -105 25 0 25 0 0 105 0 105 -25 0 -25 0 0 -105z"/>
<path d="M6640 2095 l0 -105 25 0 c24 0 25 2 25 73 0 75 9 97 42 97 26 0 38
-32 38 -104 0 -64 1 -66 25 -66 25 0 25 1 25 83 0 99 -14 127 -63 127 -18 0
-43 -7 -55 -16 -20 -14 -22 -14 -22 0 0 9 -9 16 -20 16 -19 0 -20 -7 -20 -105z"/>
<path d="M6888 2190 c-21 -13 -32 -63 -19 -89 8 -13 8 -22 1 -26 -6 -4 -10
-23 -9 -43 0 -20 -2 -49 -6 -65 -5 -16 -3 -33 5 -42 32 -39 151 -25 172 20 15
32 3 72 -25 81 -22 8 -30 9 -74 12 -13 1 -23 8 -23 15 0 9 9 12 28 9 36 -5 82
31 82 64 0 13 5 24 10 24 6 0 10 11 10 25 0 24 -2 25 -67 25 -38 0 -76 -5 -85
-10z m81 -39 c13 -24 -8 -55 -35 -49 -20 3 -30 29 -20 54 8 20 43 17 55 -5z
m16 -171 c12 -20 -9 -40 -41 -40 -37 0 -54 21 -35 43 11 14 67 11 76 -3z"/>
<path d="M7710 2188 c0 -6 14 -54 31 -105 l31 -93 37 0 37 0 32 97 c32 98 31
118 -4 111 -14 -2 -24 -23 -39 -76 -11 -39 -23 -72 -27 -72 -4 0 -10 17 -14
38 -13 73 -34 112 -60 112 -13 0 -24 -5 -24 -12z"/>
<path d="M7959 2181 c-33 -26 -40 -135 -12 -170 39 -48 179 -36 160 13 -5 13
-11 15 -26 6 -43 -22 -101 -2 -101 35 0 10 18 15 68 17 l67 3 -3 35 c-5 52
-36 80 -88 80 -26 0 -50 -7 -65 -19z m99 -48 c3 -21 -1 -23 -37 -23 -27 0 -41
4 -41 13 0 41 72 50 78 10z"/>
<path d="M8160 2095 l0 -105 25 0 c24 0 25 3 25 61 0 73 12 99 45 99 20 0 25
5 25 25 0 30 -33 35 -62 8 -17 -15 -18 -15 -18 0 0 10 -8 17 -20 17 -19 0 -20
-7 -20 -105z"/>
<path d="M8312 2188 c-26 -26 -13 -37 41 -35 47 2 52 0 55 -20 3 -20 -1 -23
-31 -23 -72 0 -111 -66 -66 -111 17 -17 29 -20 57 -15 21 3 52 6 71 6 l33 -1
-3 91 c-3 77 -7 94 -23 106 -24 17 -117 19 -134 2z m98 -132 c0 -35 -55 -52
-66 -21 -9 21 14 45 42 45 19 0 24 -5 24 -24z"/>
<path d="M8534 2186 c-16 -12 -19 -28 -21 -103 -1 -48 -5 -100 -9 -116 -8 -35
8 -55 53 -63 78 -15 144 31 129 89 -7 28 -24 37 -79 42 -21 3 -42 7 -48 10
-17 11 0 22 28 18 37 -6 83 29 83 63 0 13 5 24 10 24 6 0 10 11 10 25 0 24 -2
25 -68 25 -43 0 -75 -5 -88 -14z m81 -51 c0 -25 -4 -30 -25 -30 -16 0 -26 6
-28 18 -6 30 6 49 30 45 18 -2 23 -9 23 -33z m20 -155 c12 -20 -9 -40 -41 -40
-37 0 -54 21 -35 43 11 14 67 11 76 -3z"/>
<path d="M8737 2193 c-4 -3 -7 -51 -7 -105 0 -98 0 -98 25 -98 l25 0 0 105 c0
95 -2 105 -18 105 -10 0 -22 -3 -25 -7z"/>
<path d="M8837 2193 c-4 -3 -7 -51 -7 -105 l0 -98 30 0 29 0 3 76 c3 81 17
104 52 91 13 -5 16 -22 16 -87 l0 -80 30 0 30 0 0 78 c0 99 -13 126 -64 130
-25 2 -44 -2 -56 -13 -16 -14 -18 -14 -23 0 -7 15 -28 20 -40 8z"/>
<path d="M9088 2183 c-22 -26 -28 -50 -19 -75 4 -12 3 -34 -3 -50 -7 -20 -7
-31 1 -39 8 -8 7 -19 -6 -40 -16 -29 -15 -30 13 -56 25 -21 37 -24 73 -20 63
7 93 30 93 71 0 49 -20 60 -107 65 -42 2 -26 26 17 26 44 0 67 17 72 55 2 14
9 30 17 36 8 6 11 18 8 28 -9 24 -138 23 -159 -1z m80 -25 c16 -16 15 -33 -4
-52 -19 -20 -54 -5 -54 22 0 20 18 42 35 42 6 0 16 -5 23 -12z m20 -192 c-2
-16 -11 -22 -37 -24 -37 -4 -55 12 -41 38 6 12 19 15 45 12 30 -4 36 -8 33
-26z"/>
<path d="M6328 1069 c-10 -5 -21 -28 -24 -49 -4 -24 -12 -40 -20 -40 -8 0 -14
-9 -14 -20 0 -11 7 -20 15 -20 11 0 15 -18 17 -82 3 -81 4 -83 28 -83 24 0 25
2 28 83 3 74 5 82 22 82 13 0 20 7 20 20 0 13 -7 20 -20 20 -16 0 -20 7 -20
30 0 26 4 30 26 30 19 0 25 5 22 18 -4 20 -54 27 -80 11z"/>
<path d="M5490 1021 c0 -47 -10 -65 -25 -41 -12 19 -61 10 -86 -16 -20 -22
-24 -35 -24 -91 0 -59 3 -67 29 -90 31 -27 66 -25 99 4 15 15 17 15 17 0 0
-10 8 -17 20 -17 19 0 20 7 20 140 0 77 0 143 0 148 0 4 -11 8 -25 10 -24 3
-25 1 -25 -47z m-18 -88 c21 -19 24 -81 5 -107 -8 -11 -23 -17 -37 -14 -32 4
-44 58 -25 105 16 37 30 41 57 16z"/>
<path d="M8200 1020 c0 -47 -11 -63 -25 -40 -11 18 -53 11 -81 -13 -23 -20
-28 -34 -32 -85 -4 -58 -3 -63 27 -93 26 -25 37 -30 59 -24 15 3 35 14 45 22
15 15 17 15 17 0 0 -10 8 -17 20 -17 19 0 20 7 20 150 l0 150 -25 0 c-23 0
-25 -3 -25 -50z m-18 -87 c20 -18 24 -73 8 -104 -12 -21 -55 -26 -66 -7 -12
19 -8 96 6 112 16 20 29 20 52 -1z"/>
<path d="M8313 1063 c-7 -2 -13 -16 -13 -29 0 -22 4 -25 27 -22 31 3 44 35 21
49 -14 10 -17 10 -35 2z"/>
<path d="M8750 1055 c-18 -21 -5 -45 25 -45 20 0 25 5 25 24 0 13 -7 27 -16
30 -21 8 -20 8 -34 -9z"/>
<path d="M4668 1044 c-5 -4 -8 -68 -8 -141 l0 -134 28 3 c26 3 27 6 30 61 2
38 7 57 16 57 19 0 44 -32 59 -76 14 -38 34 -51 62 -40 12 4 11 13 -6 53 -11
26 -28 56 -36 66 -9 9 -11 17 -5 17 21 0 42 32 42 64 0 50 -29 70 -108 74 -37
2 -70 0 -74 -4z m116 -56 c15 -25 -3 -52 -38 -56 -24 -3 -26 -1 -26 38 0 39 2
41 26 38 15 -2 32 -11 38 -20z"/>
<path d="M7220 1005 c0 -16 -6 -25 -15 -25 -8 0 -15 -9 -15 -20 0 -11 7 -20
15 -20 11 0 15 -18 17 -77 3 -74 4 -78 31 -91 15 -7 36 -10 47 -7 28 9 26 43
-2 47 -21 3 -23 9 -26 66 -3 61 -2 62 23 62 18 0 25 5 25 20 0 15 -7 20 -25
20 -20 0 -25 5 -25 25 0 20 -5 25 -25 25 -20 0 -25 -5 -25 -25z"/>
<path d="M8610 1005 c0 -16 -6 -25 -15 -25 -8 0 -15 -9 -15 -20 0 -11 7 -20
15 -20 11 0 15 -18 17 -77 3 -74 4 -78 31 -91 15 -7 36 -10 47 -7 28 9 26 43
-2 47 -21 3 -23 9 -26 66 -3 61 -2 62 23 62 18 0 25 5 25 20 0 15 -7 20 -25
20 -20 0 -25 5 -25 25 0 20 -5 25 -25 25 -20 0 -25 -5 -25 -25z"/>
<path d="M4923 978 c-41 -20 -27 -53 15 -37 35 14 72 3 72 -20 0 -14 -10 -20
-37 -24 -53 -9 -83 -32 -83 -66 0 -50 63 -84 105 -57 15 10 26 12 30 6 3 -6
15 -10 26 -10 17 0 19 8 19 85 0 78 -2 88 -25 110 -26 27 -81 33 -122 13z m85
-140 c-3 -25 -43 -37 -60 -20 -19 19 0 42 32 42 27 0 31 -3 28 -22z"/>
<path d="M5192 974 c-12 -8 -22 -10 -22 -5 0 6 -11 11 -25 11 l-26 0 3 -102
c3 -98 4 -103 26 -106 21 -3 22 0 22 71 0 62 3 77 21 93 15 14 24 16 37 8 13
-9 18 -29 20 -93 3 -79 4 -81 27 -81 25 0 25 1 25 94 0 87 -2 96 -22 110 -12
9 -32 16 -43 16 -11 0 -31 -7 -43 -16z"/>
<path d="M5620 963 c-27 -24 -33 -39 -37 -80 -5 -45 -2 -54 25 -84 24 -27 37
-34 69 -34 77 0 119 52 110 134 -6 56 -32 82 -89 88 -39 5 -49 2 -78 -24z m91
-23 c15 -8 19 -21 19 -58 0 -52 -12 -72 -45 -72 -12 0 -26 5 -33 12 -18 18
-15 94 4 112 18 19 28 20 55 6z"/>
<path d="M5902 974 c-12 -8 -22 -10 -22 -5 0 6 -11 11 -25 11 l-26 0 3 -102
c3 -102 3 -103 28 -103 24 0 25 3 30 79 4 59 9 82 22 89 33 21 48 -8 48 -94 0
-78 0 -79 25 -79 24 0 25 2 25 73 0 59 4 77 18 90 41 38 62 4 62 -99 0 -62 1
-65 23 -62 21 3 22 8 25 88 2 75 0 88 -18 108 -24 26 -57 28 -88 6 -20 -14
-24 -14 -44 0 -12 9 -32 16 -43 16 -11 0 -31 -7 -43 -16z"/>
<path d="M6449 961 c-25 -25 -29 -37 -29 -85 0 -76 27 -109 94 -110 42 -1 51
3 77 32 24 27 29 41 29 83 0 43 -5 55 -29 80 -41 41 -101 41 -142 0z m96 -25
c23 -17 26 -103 4 -117 -24 -15 -58 -10 -69 10 -15 30 -12 82 7 103 19 22 33
23 58 4z"/>
<path d="M6727 973 c-11 -11 -17 -13 -17 -5 0 7 -11 12 -25 12 l-26 0 3 -102
c3 -102 3 -103 28 -103 24 0 25 3 28 70 3 74 15 99 44 92 14 -4 18 1 18 24 0
34 -25 40 -53 12z"/>
<path d="M6847 972 c-46 -28 -58 -118 -23 -174 27 -44 148 -44 154 -1 3 19 -1
20 -42 16 -49 -6 -76 7 -76 36 0 13 11 16 62 16 l63 0 3 37 c6 73 -73 112
-141 70z m81 -34 c24 -24 13 -38 -28 -38 -26 0 -40 5 -40 13 0 18 21 37 40 37
9 0 21 -5 28 -12z"/>
<path d="M7045 965 c-14 -13 -25 -33 -25 -43 0 -22 33 -53 73 -70 43 -18 28
-37 -27 -35 -39 1 -46 -2 -46 -17 0 -26 16 -33 68 -33 35 0 49 5 64 22 35 45
21 80 -49 115 -18 9 -33 21 -33 26 0 15 50 24 63 11 17 -17 27 -13 27 9 0 43
-77 54 -115 15z"/>
<path d="M7528 974 c-16 -8 -28 -10 -28 -4 0 5 -9 10 -20 10 -19 0 -20 -7 -20
-145 l0 -145 25 0 c23 0 25 3 25 50 l0 50 25 -16 c54 -35 115 20 115 104 0 94
-52 135 -122 96z m50 -36 c13 -13 16 -85 6 -112 -9 -22 -51 -20 -64 3 -32 61
16 151 58 109z"/>
<path d="M7758 973 c-12 -12 -18 -13 -18 -4 0 7 -9 11 -22 9 -22 -3 -23 -7
-23 -103 l0 -100 25 0 c24 0 25 3 28 65 3 69 20 100 54 100 14 0 19 6 16 23
-4 28 -37 34 -60 10z"/>
<path d="M7869 961 c-24 -25 -29 -37 -29 -81 0 -65 12 -88 57 -106 51 -22 123
-3 123 31 0 8 -17 12 -56 11 -50 -1 -57 2 -65 22 -8 21 -6 22 50 22 68 0 84
12 75 59 -14 71 -102 95 -155 42z m87 -19 c6 -4 13 -15 17 -24 5 -16 0 -18
-39 -18 -33 0 -43 3 -38 13 21 37 37 45 60 29z"/>
<path d="M8453 980 c-35 -14 -56 -66 -51 -122 6 -55 27 -84 68 -93 37 -8 90
19 90 45 0 21 -15 27 -25 10 -8 -13 -62 -13 -70 0 -13 21 -7 103 9 118 13 14
21 14 47 5 25 -10 31 -9 36 4 13 33 -52 54 -104 33z"/>
<path d="M8878 961 c-29 -26 -32 -34 -32 -85 0 -47 4 -60 25 -81 35 -35 85
-41 127 -15 40 25 55 62 49 120 -10 88 -102 121 -169 61z m96 -24 c21 -15 25
-89 6 -112 -15 -18 -51 -20 -68 -3 -18 18 -15 88 5 110 19 21 33 23 57 5z"/>
<path d="M9160 973 c-17 -12 -25 -13 -28 -5 -2 7 -12 12 -23 12 -18 0 -20 -7
-17 -102 3 -98 4 -103 26 -106 21 -3 22 0 22 71 0 62 3 77 21 93 15 14 24 16
37 8 13 -9 18 -29 20 -93 3 -79 4 -81 27 -81 25 0 25 1 25 90 0 77 -3 93 -20
110 -24 24 -58 26 -90 3z"/>
<path d="M8302 878 c3 -102 3 -103 28 -103 25 0 25 1 28 103 l3 102 -31 0 -31
0 3 -102z"/>
<path d="M8750 874 c0 -104 0 -105 23 -102 21 3 22 8 25 106 l3 102 -26 0 -25
0 0 -106z"/>
</g>
</svg>
