<?xml version="1.0" standalone="no"?>
<!DOCTYPE svg PUBLIC "-//W3C//DTD SVG 20010904//EN"
 "http://www.w3.org/TR/2001/REC-SVG-20010904/DTD/svg10.dtd">
<svg version="1.0" xmlns="http://www.w3.org/2000/svg"
 width="1200.000000pt" height="800.000000pt" viewBox="0 0 1200.000000 800.000000"
 preserveAspectRatio="xMidYMid meet">

<g transform="translate(0.000000,800.000000) scale(0.100000,-0.100000)"
fill="#000000" stroke="none">
<path d="M0 5818 l1 -2183 3623 -1817 3623 -1818 2377 0 2376 0 0 4000 0 4000
-6000 0 -6000 0 0 -2182z m4124 1042 c39 -14 23 -40 -25 -40 -21 0 -39 2 -39
4 0 2 -3 11 -6 19 -5 14 5 20 38 26 4 0 18 -3 32 -9z m153 -56 c6 -16 -11 -34
-33 -34 -19 0 -47 27 -40 38 11 18 66 15 73 -4z m428 -20 c61 -19 114 -39 118
-44 10 -9 -203 -24 -257 -18 -28 3 -37 0 -42 -14 -3 -10 -13 -18 -22 -18 -24
1 -55 27 -47 39 4 8 -23 11 -84 11 -84 0 -113 9 -75 24 9 3 69 6 135 6 97 0
119 3 119 15 0 12 25 34 40 35 3 0 55 -16 115 -36z m-593 9 c20 -18 25 -38 6
-27 -8 5 -9 2 -5 -10 6 -14 4 -15 -16 -4 -19 10 -20 13 -4 16 9 2 17 7 17 12
0 5 -8 14 -17 19 -10 6 -14 11 -9 11 5 0 18 -7 28 -17z m88 -38 c0 -9 -9 -15
-25 -15 -16 0 -25 6 -25 15 0 9 9 15 25 15 16 0 25 -6 25 -15z m51 -12 c13
-16 12 -17 -3 -4 -10 7 -18 15 -18 17 0 8 8 3 21 -13z m9 -28 c0 -2 -6 -5 -13
-8 -8 -3 -14 1 -14 8 0 7 6 11 14 8 7 -3 13 -6 13 -8z m519 -54 c20 -13 6 -41
-21 -41 -32 0 -52 15 -45 34 7 17 43 21 66 7z m-275 -20 c3 -5 -1 -11 -9 -14
-9 -4 -12 -1 -8 9 6 16 10 17 17 5z m276 -40 c0 -6 -4 -12 -10 -16 -5 -3 -8
-11 -6 -18 1 -7 1 -9 -1 -4 -3 4 -10 4 -16 0 -7 -4 -6 1 2 10 11 14 11 17 0
17 -11 0 -11 2 1 10 19 12 30 13 30 1z m242 -9 c15 -15 -19 -42 -53 -42 -54 0
-93 38 -56 54 18 8 97 0 109 -12z m-181 -21 c31 -25 21 -34 -19 -20 -32 11
-38 19 -25 32 10 11 19 8 44 -12z m260 -12 c26 -13 15 -29 -21 -29 -42 0 -48
35 -7 39 5 1 17 -4 28 -10z m113 -38 c4 -5 3 -16 0 -25 -5 -12 -10 -13 -30 -4
-25 11 -29 20 -17 31 9 10 41 8 47 -2z m-224 -45 c0 -5 -9 -1 -20 9 -11 10
-20 22 -20 26 0 5 9 1 20 -8 11 -10 20 -22 20 -27z m105 34 c3 -6 -1 -7 -9 -4
-18 7 -21 14 -7 14 6 0 13 -4 16 -10z m5 -26 c0 -2 -7 -4 -15 -4 -8 0 -15 4
-15 10 0 5 7 7 15 4 8 -4 15 -8 15 -10z m-1148 -86 c76 -25 98 -36 98 -50 0
-25 26 -33 45 -15 19 19 19 31 1 24 -11 -4 -11 -1 -2 18 6 13 13 21 15 19 10
-10 11 -53 1 -59 -22 -14 -8 -23 22 -14 38 10 68 3 68 -16 0 -16 38 -40 48
-31 3 3 0 6 -6 6 -7 0 -12 5 -12 11 0 5 5 7 12 3 6 -4 23 -8 37 -9 14 -1 55
-10 89 -20 49 -14 66 -24 73 -42 11 -30 35 -25 31 5 -2 12 1 22 6 22 17 0 21
-12 12 -36 -11 -27 -10 -27 23 -15 38 15 166 -26 178 -56 9 -24 24 -30 34 -13
4 6 11 8 16 4 5 -3 7 -10 4 -15 -4 -5 3 -5 18 0 35 13 111 -10 115 -35 5 -25
14 -34 40 -39 19 -3 21 -1 16 22 -5 18 -4 24 5 19 6 -4 9 -12 6 -17 -4 -5 -1
-9 5 -9 7 0 9 -7 6 -16 -5 -13 -4 -14 7 -6 8 7 17 9 20 5 4 -3 13 0 22 7 12
10 15 10 15 -4 0 -22 39 -36 67 -25 30 11 50 3 57 -23 4 -17 8 -19 19 -10 17
14 29 12 169 -32 399 -125 441 -144 475 -209 8 -17 17 -54 20 -83 5 -46 3 -53
-16 -59 -12 -3 -31 -25 -42 -47 l-21 -41 -18 28 -19 28 -22 -38 c-24 -40 -22
-40 -56 12 -11 16 -14 16 -22 3 -36 -56 -36 -56 -61 -13 -20 36 -28 42 -79 53
-67 14 -1782 586 -1792 597 -4 5 -10 38 -14 75 l-6 67 40 40 c69 69 116 74
253 29z m1023 3 c3 -5 1 -12 -4 -15 -5 -3 -11 1 -15 9 -6 16 9 21 19 6z m22
-23 c-3 -8 -6 -5 -6 6 -1 11 2 17 5 13 3 -3 4 -12 1 -19z m88 12 c-3 -5 -11
-10 -16 -10 -6 0 -7 5 -4 10 3 6 11 10 16 10 6 0 7 -4 4 -10z m-100 -31 c11
-17 -1 -21 -15 -4 -8 9 -8 15 -2 15 6 0 14 -5 17 -11z m205 -31 c0 -18 -2 -20
-9 -8 -6 8 -7 18 -5 22 9 14 14 9 14 -14z m-215 -48 c3 -5 1 -10 -5 -10 -6 0
-8 -5 -3 -12 4 -7 9 -22 10 -33 3 -20 3 -20 -12 -1 -17 22 -20 66 -6 66 6 0
13 -4 16 -10z m-33 -64 c-2 -9 4 -16 13 -16 9 0 13 -4 10 -10 -11 -18 -23 -11
-34 21 -8 23 -8 30 2 26 6 -2 11 -11 9 -21z m-2786 -35 c246 -28 391 -69 1014
-288 302 -106 329 -114 388 -111 60 3 62 2 62 -22 0 -14 11 -42 24 -64 l23
-39 6 43 c3 23 8 44 10 47 3 2 18 -4 34 -15 15 -11 127 -54 248 -96 525 -180
986 -340 1197 -415 273 -96 303 -102 398 -71 39 12 73 26 75 31 3 4 -15 25
-40 45 -25 21 -45 41 -45 45 0 4 17 10 37 14 21 4 73 18 116 32 43 13 81 22
84 19 5 -5 -14 -62 -24 -75 -2 -3 -17 8 -33 24 l-29 28 -10 -24 c-5 -13 -16
-41 -25 -61 -9 -21 -13 -38 -8 -38 4 0 29 13 55 30 25 16 61 36 78 45 l31 17
-5 -48 c-4 -40 2 -60 34 -128 69 -149 148 -208 397 -301 1055 -392 1339 -506
1776 -710 194 -90 1214 -603 1351 -680 173 -95 288 -166 297 -181 4 -6 22 -17
40 -25 48 -19 182 -101 191 -116 4 -7 14 -13 21 -13 16 0 137 -77 151 -96 5
-8 20 -15 33 -17 13 -2 28 -10 33 -18 5 -8 9 -9 9 -4 0 6 5 2 11 -7 5 -10 31
-30 57 -44 26 -15 52 -32 57 -39 12 -14 91 -66 128 -84 15 -8 27 -18 27 -22 0
-4 25 -24 55 -44 31 -20 68 -48 83 -62 15 -14 42 -32 60 -39 17 -8 32 -21 32
-29 0 -8 12 -22 28 -32 15 -9 38 -28 51 -40 13 -13 46 -35 72 -50 26 -14 50
-32 53 -39 3 -7 23 -22 46 -34 22 -11 40 -25 40 -31 0 -6 5 -7 10 -4 6 3 10 2
10 -4 0 -6 21 -23 47 -38 26 -15 55 -35 64 -44 9 -9 38 -29 64 -45 71 -41 106
-76 95 -94 -13 -20 -13 -33 0 -25 5 3 10 2 10 -4 0 -6 7 -7 17 -4 10 4 14 2
10 -4 -4 -6 45 -32 116 -63 130 -56 154 -70 138 -79 -5 -3 -11 -15 -13 -26 -1
-11 -5 -22 -8 -25 -13 -13 -29 -60 -20 -60 6 0 1 -9 -9 -19 -20 -20 -21 -19
-138 9 -65 17 -126 27 -137 24 -11 -4 -16 -2 -12 4 3 5 -4 10 -17 9 -12 0 -46
7 -75 16 l-52 16 -15 -28 c-8 -16 -11 -31 -8 -35 4 -3 -1 -6 -9 -6 -9 0 -19
-7 -22 -16 -4 -11 3 -18 25 -26 16 -6 28 -12 26 -14 -2 -3 -17 0 -32 6 -23 9
-30 7 -41 -7 -11 -16 -9 -19 19 -31 l32 -12 -32 5 c-28 4 -35 0 -52 -29 -12
-18 -21 -35 -21 -38 0 -3 18 -10 41 -17 54 -16 46 -23 -10 -9 -34 9 -45 8 -51
-3 -7 -10 4 -18 43 -31 34 -11 40 -15 17 -11 -97 18 -123 -6 -34 -32 31 -9 54
-18 52 -20 -2 -2 -26 2 -53 11 -53 15 -75 13 -75 -9 0 -8 24 -21 61 -31 34 -9
60 -19 57 -21 -2 -2 -33 4 -68 15 -49 15 -66 17 -72 7 -14 -22 -9 -26 50 -43
31 -9 61 -20 66 -24 4 -5 -24 1 -64 13 -61 17 -73 18 -80 6 -12 -19 -5 -23 73
-44 37 -9 66 -19 64 -22 -3 -2 -37 5 -77 16 -40 11 -77 18 -81 15 -17 -10 -9
-22 19 -29 65 -16 133 -37 130 -41 -3 -2 -36 5 -74 16 -78 23 -104 25 -104 9
0 -6 -7 -17 -15 -25 -8 -9 -15 -26 -15 -40 0 -15 -6 -24 -16 -24 -65 0 -442
125 -639 212 -49 22 -119 51 -155 65 -113 44 -206 88 -239 114 l-32 25 40 59
c22 32 38 62 35 67 -3 4 2 8 10 8 9 0 16 4 16 9 0 5 18 32 40 59 33 43 37 51
22 55 -13 4 -13 5 4 6 22 1 89 85 80 100 -3 5 4 11 15 14 51 14 6 33 -147 65
-323 67 -707 166 -999 258 -165 52 -306 92 -313 89 -8 -3 -10 0 -6 7 5 7 0 9
-14 6 -14 -4 -20 -2 -15 5 4 6 -2 8 -15 5 -12 -4 -20 -3 -17 2 3 4 -4 10 -15
13 -11 3 -18 1 -14 -4 8 -13 10 -14 -173 42 -798 241 -1292 413 -2088 724
-421 165 -1700 679 -2390 960 -319 130 -761 310 -982 398 -329 133 -404 166
-413 186 -8 18 -8 22 2 18 43 -17 169 -72 203 -87 76 -35 618 -250 622 -247 1
2 -34 19 -80 37 -45 18 -175 73 -288 121 -113 47 -217 90 -230 94 -13 4 -64
27 -114 50 -49 23 -100 45 -113 49 -12 4 -29 21 -37 37 -13 24 -18 27 -33 18
-14 -9 -48 3 -175 61 -142 65 -161 77 -188 116 -16 23 -29 45 -29 48 0 3 111
-50 248 -119 136 -68 301 -146 367 -173 225 -93 270 -111 449 -182 98 -39 180
-69 182 -68 3 3 -440 187 -536 223 -83 31 -263 115 -565 265 -312 155 -512
265 -592 326 -26 20 -58 40 -71 45 -13 5 -52 30 -88 55 -35 25 -64 44 -64 41
0 -3 45 -37 100 -76 101 -73 218 -142 438 -261 l123 -67 -26 -17 c-26 -17 -28
-17 -133 42 -112 62 -205 120 -310 197 -34 25 -66 45 -69 45 -3 0 -39 25 -79
54 l-72 55 1 103 c0 63 4 106 11 110 8 5 7 8 -1 8 -7 0 -13 7 -13 15 0 7 -6
18 -12 22 -7 4 -19 18 -25 30 -11 18 -10 21 1 17 9 -3 22 10 37 35 12 23 27
41 33 41 5 0 7 3 3 6 -3 4 0 19 8 35 11 20 20 26 32 22 11 -4 14 -3 9 5 -4 7
0 15 9 19 10 3 28 17 41 29 12 13 30 24 39 24 8 0 15 5 15 10 0 6 7 10 15 10
8 0 15 3 15 8 0 11 99 54 109 47 5 -3 12 -1 15 4 6 9 59 21 116 27 14 2 48 6
75 9 53 5 243 21 285 23 14 1 102 -7 196 -17z m2918 -10 c3 -5 -1 -11 -9 -14
-9 -4 -12 -1 -8 9 6 16 10 17 17 5z m-104 -11 c0 -5 -7 -10 -15 -10 -8 0 -15
5 -15 10 0 6 7 10 15 10 8 0 15 -4 15 -10z m-4 -35 c-3 -8 -1 -15 5 -15 6 0 7
-4 4 -10 -3 -5 -10 -10 -16 -10 -10 0 -12 33 -2 43 11 12 15 8 9 -8z m-26 -15
c0 -5 -5 -10 -11 -10 -5 0 -7 5 -4 10 3 6 8 10 11 10 2 0 4 -4 4 -10z m40 -34
c0 -3 -4 -8 -10 -11 -5 -3 -10 -1 -10 4 0 6 5 11 10 11 6 0 10 -2 10 -4z m90
-6 c0 -5 -2 -10 -4 -10 -3 0 -8 5 -11 10 -3 6 -1 10 4 10 6 0 11 -4 11 -10z
m-4435 -40 c3 -5 1 -10 -4 -10 -6 0 -11 5 -11 10 0 6 2 10 4 10 3 0 8 -4 11
-10z m52 -26 c-7 -7 -37 7 -37 17 0 6 9 5 21 -1 11 -7 19 -14 16 -16z m50 -20
c-7 -7 -37 7 -37 17 0 6 9 5 21 -1 11 -7 19 -14 16 -16z m161 -56 c2 -4 15 -8
28 -8 13 0 24 -5 24 -11 0 -6 7 -9 15 -5 8 3 15 1 15 -4 0 -5 -13 -8 -29 -7
-16 1 -27 5 -24 10 4 6 -15 11 -44 10 -7 -1 -10 3 -7 8 5 8 -12 13 -43 12 -7
-1 -10 3 -7 8 5 8 0 10 -38 13 -13 1 -38 20 -38 29 0 7 145 -46 148 -55z
m-213 4 c-3 -3 -11 0 -18 7 -9 10 -8 11 6 5 10 -3 15 -9 12 -12z m3018 -70
c-20 -14 -27 -6 -38 47 l-7 34 30 -34 c28 -31 30 -35 15 -47z m-2951 54 c9 0
15 -2 13 -5 -8 -8 77 -41 88 -34 5 3 7 2 4 -4 -5 -7 44 -33 73 -38 21 -4 96
-51 120 -77 41 -42 38 -47 -5 -9 -39 34 -95 66 -95 54 0 -5 -4 -3 -8 3 -4 6
-56 33 -117 59 -60 27 -114 53 -120 58 -6 7 -3 7 10 2 11 -4 28 -8 37 -9z
m-72 -61 c0 -11 -19 -4 -41 15 l-24 21 33 -16 c17 -8 32 -18 32 -20z m350 23
c0 -4 -6 -8 -14 -8 -8 0 -17 4 -20 8 -2 4 4 8 15 8 10 0 19 -4 19 -8z m-240
-68 c33 -17 63 -30 66 -29 8 1 24 -22 24 -35 0 -5 -8 -1 -19 8 -10 9 -47 32
-82 51 -79 43 -70 46 11 5z m-180 -80 c0 -5 9 -12 20 -15 11 -3 20 -11 20 -16
0 -6 -9 -5 -22 2 -39 21 -65 55 -33 43 8 -4 15 -10 15 -14z m170 -12 c0 -4 7
-8 15 -8 8 0 15 -4 15 -10 0 -5 4 -10 8 -10 5 0 28 -18 52 -40 24 -22 39 -40
34 -40 -5 0 -26 16 -47 35 -21 19 -42 35 -48 35 -5 0 -9 5 -9 10 0 6 -5 10
-10 10 -6 0 -23 12 -38 26 l-27 25 28 -12 c15 -7 27 -16 27 -21z m-340 12 c8
-5 11 -10 5 -10 -5 0 -17 5 -25 10 -8 5 -10 10 -5 10 6 0 17 -5 25 -10z m490
-22 c0 -6 -7 -5 -15 2 -8 7 -15 17 -15 22 0 6 7 5 15 -2 8 -7 15 -17 15 -22z
m60 -59 c0 -6 -4 -7 -10 -4 -5 3 -10 11 -10 16 0 6 5 7 10 4 6 -3 10 -11 10
-16z m-334 -37 c-7 -7 -46 9 -46 18 0 5 11 4 25 -2 14 -6 23 -13 21 -16z m144
-2 c0 -5 7 -10 15 -10 8 0 15 -8 14 -17 0 -11 -3 -13 -6 -5 -2 6 -11 12 -18
12 -7 0 -15 7 -19 15 -3 8 -1 15 4 15 6 0 10 -4 10 -10z m-120 -20 c0 -5 -7
-7 -15 -4 -8 4 -15 8 -15 10 0 2 7 4 15 4 8 0 15 -4 15 -10z m285 -30 c-3 -5
-1 -11 5 -15 5 -3 10 -15 10 -27 0 -17 2 -19 16 -7 13 11 14 9 8 -16 -4 -18
-3 -26 3 -22 6 4 15 -5 21 -18 7 -15 8 -25 2 -25 -6 0 -10 5 -10 10 0 6 -4 10
-8 10 -4 0 -6 -16 -4 -35 2 -19 0 -35 -4 -35 -5 0 -9 17 -8 37 1 47 -6 74 -17
67 -14 -8 -31 6 -21 19 10 15 10 28 -3 47 -16 25 -16 43 1 29 7 -6 12 -15 9
-19z m-31 -62 c-3 -5 -12 -4 -20 3 -7 6 -11 15 -8 21 3 5 12 4 20 -3 7 -6 11
-15 8 -21z m390 -110 c31 -24 246 -154 354 -213 92 -51 92 -52 71 -70 -17 -16
-23 -17 -40 -7 -11 7 -25 10 -31 6 -6 -4 -8 -3 -4 4 6 11 -30 28 -49 23 -5 -1
-7 1 -3 5 11 10 -30 37 -44 28 -6 -4 -8 -3 -5 3 8 13 -60 56 -74 47 -5 -3 -8
-1 -7 4 4 11 -57 60 -185 148 -93 64 -167 132 -167 154 0 9 39 -18 184 -132z
m4245 107 c2 -3 -8 -18 -23 -34 -34 -35 -29 -47 24 -56 22 -4 40 -9 40 -11 0
-2 -15 -27 -32 -56 l-33 -53 -22 95 c-31 130 -30 134 9 126 17 -3 34 -8 37
-11z m171 5 c0 -16 -23 -60 -31 -60 -9 0 -39 40 -39 52 0 6 24 13 58 17 6 0
12 -3 12 -9z m-80 -5 c0 -10 -40 -85 -46 -85 -6 0 -34 65 -34 80 0 5 18 10 40
10 22 0 40 -2 40 -5z m-4594 -120 c9 -19 14 -40 11 -47 -3 -7 -6 -3 -6 10 -1
18 -5 22 -18 18 -15 -5 -18 1 -20 29 -2 41 10 38 33 -10z m399 -135 c3 -5 2
-10 -4 -10 -5 0 -13 5 -16 10 -3 6 -2 10 4 10 5 0 13 -4 16 -10z m590 -265
c70 -35 133 -66 139 -68 7 -3 6 -10 -4 -20 -14 -15 -25 -12 -123 32 -85 37
-113 55 -128 80 -19 32 -23 41 -15 41 2 0 61 -29 131 -65z m7586 -2913 c-7 -2
-18 1 -23 6 -8 8 -4 9 13 5 13 -4 18 -8 10 -11z m-157 -11 c3 -4 -6 -6 -19 -3
-14 2 -25 6 -25 8 0 8 39 4 44 -5z m203 3 c-3 -3 -12 -4 -19 -1 -8 3 -5 6 6 6
11 1 17 -2 13 -5z m-71 -42 c-21 -4 -104 17 -111 28 -2 4 26 0 62 -9 37 -9 59
-17 49 -19z m129 28 c13 -5 14 -9 5 -9 -8 0 -24 4 -35 9 -13 5 -14 9 -5 9 8 0
24 -4 35 -9z m52 -16 c-3 -3 -12 -4 -19 -1 -8 3 -5 6 6 6 11 1 17 -2 13 -5z
m953 -734 c0 -5 -2 -10 -4 -10 -3 0 -8 5 -11 10 -3 6 -1 10 4 10 6 0 11 -4 11
-10z"/>
<path d="M1231 5716 c10 -9 89 -46 89 -41 0 5 -75 45 -86 45 -4 0 -5 -2 -3 -4z"/>
<path d="M1270 5650 c30 -16 60 -29 65 -29 6 0 -15 13 -45 29 -30 16 -59 29
-65 29 -5 0 15 -13 45 -29z"/>
<path d="M1265 5604 c157 -95 520 -285 494 -259 -4 3 -67 36 -140 74 -74 37
-194 103 -267 145 -135 77 -196 105 -87 40z"/>
<path d="M1195 5600 c3 -5 33 -26 68 -46 34 -21 76 -48 93 -61 17 -13 34 -23
38 -23 3 0 50 -25 103 -56 104 -60 293 -157 293 -150 0 2 -66 39 -147 81 -82
42 -178 97 -214 121 -37 24 -70 44 -73 44 -4 0 -42 22 -87 50 -44 27 -77 45
-74 40z"/>
<path d="M1531 5516 c10 -9 69 -36 69 -32 0 6 -55 36 -66 36 -4 0 -5 -2 -3 -4z"/>
<path d="M2056 5325 c9 -14 33 -30 58 -37 22 -6 46 -14 51 -18 6 -4 26 -7 45
-9 19 -1 46 -8 60 -15 104 -54 132 -67 142 -64 6 2 -8 10 -31 18 -41 13 -54
29 -26 31 51 4 75 3 75 -5 0 -4 7 -6 15 -2 8 3 15 2 15 -3 0 -10 42 -19 128
-26 51 -4 64 -2 68 10 9 22 0 28 -49 36 l-42 6 48 2 c26 0 47 3 47 6 0 3 -11
16 -24 28 -13 12 -26 32 -30 45 -7 20 -10 21 -23 10 -9 -7 -18 -12 -19 -11 -2
2 -39 -14 -81 -33 -90 -42 -160 -66 -165 -56 -2 4 -48 22 -103 41 -55 18 -112
42 -127 52 -37 27 -52 24 -32 -6z m491 -71 c-3 -3 -12 -4 -19 -1 -8 3 -5 6 6
6 11 1 17 -2 13 -5z"/>
<path d="M1941 5186 c10 -9 69 -36 69 -32 0 6 -55 36 -66 36 -4 0 -5 -2 -3 -4z"/>
<path d="M2250 5025 c36 -19 70 -34 75 -34 6 0 -19 15 -55 34 -36 19 -69 34
-75 34 -5 0 19 -15 55 -34z"/>
<path d="M2340 4986 c0 -2 7 -7 16 -10 8 -3 12 -2 9 4 -6 10 -25 14 -25 6z"/>
<path d="M2470 4927 c14 -8 36 -17 50 -21 l25 -7 -25 14 c-14 8 -36 17 -50 21
l-25 7 25 -14z"/>
<path d="M2940 4740 c51 -22 96 -38 97 -36 5 5 -166 76 -180 76 -7 0 31 -18
83 -40z"/>
<path d="M990 1445 c-6 -8 -10 -22 -8 -32 3 -13 7 -9 15 15 13 35 12 39 -7 17z"/>
<path d="M1238 1182 c11 -12 20 -14 24 -8 13 19 9 26 -17 26 -24 0 -24 -1 -7
-18z"/>
<path d="M1006 991 c5 -5 85 -37 178 -72 131 -49 171 -69 179 -86 9 -20 18
-23 69 -23 32 0 58 4 58 8 0 11 -30 37 -52 45 -10 4 -18 11 -18 17 0 14 -38
12 -42 -2 -3 -9 -58 7 -184 55 -176 66 -208 76 -188 58z"/>
</g>
</svg>
