<svg xmlns="http://www.w3.org/2000/svg" width="256" height="256" viewBox="0 0 256 256" version="1.1"><path d="M 68.500 30.838 L 15.500 61.575 15.500 126.941 L 15.500 192.306 70.498 224.153 C 102.749 242.828, 126.532 256, 128 256 C 129.468 256, 153.251 242.828, 185.502 224.153 L 240.500 192.306 240.758 130.653 C 240.932 88.891, 240.683 69, 239.986 69 C 238.963 69, 215.628 82.286, 213.260 84.217 C 212.313 84.989, 211.959 96.003, 211.760 130.766 L 211.500 176.305 170.500 200.098 C 147.950 213.184, 128.825 223.891, 128 223.891 C 127.175 223.891, 108.050 213.184, 85.500 200.097 L 44.500 176.304 44.500 126.957 L 44.500 77.610 83.712 55.055 L 122.924 32.500 122.962 16.250 C 122.983 7.313, 122.662 0.023, 122.250 0.051 C 121.838 0.079, 97.650 13.933, 68.500 30.838" stroke="none" fill="#1c1c2c" fill-rule="evenodd"/><path d="M 133.225 16.005 L 133.500 32.243 170.393 53.622 C 190.685 65.380, 207.743 75, 208.302 75 C 209.592 75, 236.015 59.742, 235.957 59.030 C 235.910 58.457, 137.449 1.493, 134.646 0.418 C 133.087 -0.181, 132.972 1.082, 133.225 16.005 M 145.994 94.934 C 142.051 96.134, 137.741 98.641, 134.750 101.475 L 132 104.081 132 99.540 L 132 95 122.500 95 L 113 95 113 130 L 113 165 122.500 165 L 132 165 132 142.174 C 132 119.755, 132.040 119.311, 134.264 117.222 C 137.677 114.016, 143.353 112, 148.968 112 L 154 112 154 103 L 154 94 151.250 94.086 C 149.738 94.133, 147.372 94.515, 145.994 94.934" stroke="none" fill="#2cb474" fill-rule="evenodd"/></svg>