<svg xmlns="http://www.w3.org/2000/svg" fill-rule="evenodd" stroke-linejoin="round" stroke-miterlimit="1.414" clip-rule="evenodd" viewBox="0 0 453 361" id="ssh"><path fill="none" d="M.6.628h451.858v359.469H.6z"></path><path fill="#cce6ff" fill-opacity=".259" d="M434.395 53.931c0-8.279-6.721-15-15-15h-371c-8.279 0-15 6.721-15 15v236c0 8.279 6.721 15 15 15h371c8.279 0 15-6.721 15-15v-236Z"></path><path fill="url(#a)" d="M422.395 38.931c0-8.279-6.721-15-15-15h-371c-8.279 0-15 6.721-15 15v236c0 8.279 6.721 15 15 15h371c8.279 0 15-6.721 15-15v-236Z"></path><path fill="url(#b)" d="M400.395 71.931h-358v189c0 6.071 4.929 11 11 11h339c4.415 0 8-3.585 8-8v-192Z"></path><circle cx="73.395" cy="46.931" r="8" fill="#0084ff"></circle><circle cx="50.395" cy="46.931" r="8" fill="#55d7ff"></circle><circle cx="96.395" cy="46.931" r="8" fill="#0bbc00"></circle><path fill="#e5f1ff" d="M337.395 46.931c0-4.415-3.585-8-8-8h-145c-4.415 0-8 3.585-8 8s3.585 8 8 8h145c4.415 0 8-3.585 8-8ZM400.395 46.931c0-4.415-3.585-8-8-8h-9c-4.415 0-8 3.585-8 8s3.585 8 8 8h9c4.415 0 8-3.585 8-8ZM369.395 46.931c0-4.415-3.585-8-8-8h-9c-4.415 0-8 3.585-8 8s3.585 8 8 8h9c4.415 0 8-3.585 8-8Z"></path><path fill="none" stroke="#fefeff" stroke-width="22" d="M344.39 177.203c-22.213 0-40.283 18.07-40.282 40.283 0 15.173 8.545 28.988 21.973 35.846l.002 64.158a3.66 3.66 0 0 0 1.073 2.59l14.649 14.65a3.66 3.66 0 0 0 5.179 0l14.649-14.649a3.658 3.658 0 0 0 1.072-2.589l-.003-7.326c0-1.118-.51-2.175-1.388-2.871l-4.39-3.479 4.938-5.966a3.655 3.655 0 0 0 0-4.668l-4.939-5.966 4.393-3.477c.829-.632 1.32-1.613 1.383-2.657a3.672 3.672 0 0 0-1.067-2.802l-4.822-4.822 4.734-4.734a3.656 3.656 0 0 0 1.072-2.589l.087-13.194c13.428-6.852 21.978-20.275 21.972-35.453 0-22.213-18.072-40.284-40.285-40.285Zm10.986 28.637c0 6.059-4.925 10.985-10.985 10.985-6.059 0-10.985-4.926-10.985-10.985 0-6.059 4.926-10.985 10.985-10.985 6.059 0 10.985 4.927 10.985 10.985Z"></path><path fill="url(#c)" fill-rule="nonzero" d="M344.39 177.203c-22.213 0-40.283 18.07-40.282 40.283 0 15.173 8.545 28.988 21.973 35.846l.002 64.158a3.66 3.66 0 0 0 1.073 2.59l14.649 14.65a3.66 3.66 0 0 0 5.179 0l14.649-14.649a3.658 3.658 0 0 0 1.072-2.589l-.003-7.326c0-1.118-.51-2.175-1.388-2.871l-4.39-3.479 4.938-5.966a3.655 3.655 0 0 0 0-4.668l-4.939-5.966 4.393-3.477c.829-.632 1.32-1.613 1.383-2.657a3.672 3.672 0 0 0-1.067-2.802l-4.822-4.822 4.734-4.734a3.656 3.656 0 0 0 1.072-2.589l.087-13.194c13.428-6.852 21.978-20.275 21.972-35.453 0-22.213-18.072-40.284-40.285-40.285Zm10.986 28.637c0 6.059-4.925 10.985-10.985 10.985-6.059 0-10.985-4.926-10.985-10.985 0-6.059 4.926-10.985 10.985-10.985 6.059 0 10.985 4.927 10.985 10.985Z"></path><path fill="#fff" fill-opacity=".376" fill-rule="nonzero" d="M345.394 181.389c2.623.245 3.557 5.215-.149 5.355-1.806.009-2.334.064-3.485.193-9.573 1.073-18.437 6.895-23.103 15.432 0 0-1.11 1.544-2.64 1.379-1.755-.19-3-2.096-2.063-3.95.826-1.512 1.067-1.865 1.651-2.739 6.396-9.572 17.685-15.53 29.31-15.673.24-.002.239-.004.479.003zm-32.657 29.759c.459.029.608.08.874.186 2.234.882 1.426 4.556 1.824 7.928a28.739 28.739 0 0 0 1.279 5.701s.239 2.7-1.645 3.37c-1.471.523-3.051-.461-3.595-2.15-1.313-4.154-2.279-8.654-1.48-12.857.242-1.274 1.036-2.212 2.743-2.178z"></path><path fill="#003c90" fill-opacity=".482" fill-rule="nonzero" d="M368.065 236.944c1.835.209 1.809.729 2.181 1.465.501.994.462 2.029-.455 3.057-1.122 1.175-1.38 1.396-2.086 2.026-8.588 7.654-20.96 10.648-32.279 7.824-1.678-.419-3.132-2.002-2.394-3.776.501-1.206 1.647-1.906 3.157-1.564 1.75.461 2.271.542 3.415.716 9.506 1.441 19.586-1.885 26.31-8.927 0 0 1.84-.835 2.151-.821zm8.368-23.335c2.401.157 2.704 3.386 2.589 6.046a33.988 33.988 0 0 1-1.52 8.667c-.534 1.71-2.159 3.175-3.911 2.375-2.392-1.092-.731-4.848-.214-8.273.298-1.977.381-3.982.261-5.977 0 0 .244-2.899 2.795-2.838z"></path><path fill="#70d1ff" fill-opacity=".702" d="M341.395 327.931v-71l-11-1v59"></path><path fill="#00c400" fill-rule="nonzero" d="M192.796 162.415c0-2.928-1.83-5.856-4.636-7.076l-44.042-19.764a5.526 5.526 0 0 0-1.952-.366c-2.684 0-5.368 2.074-5.246 5.246 0 1.952 1.098 3.904 3.172 4.758l40.87 17.446-40.87 17.324c-1.952.854-3.05 2.684-3.05 4.758 0 3.05 2.562 5.124 5.124 5.124.61 0 1.342-.122 1.952-.366l44.042-19.642c2.806-1.22 4.636-4.148 4.636-7.442zm72.712 50.996c0-2.806-2.318-5.124-5.002-5.124h-60.878c-2.806 0-5.124 2.318-5.124 5.124 0 2.928 2.318 5.246 5.124 5.246h60.878c2.684 0 5.002-2.318 5.002-5.246z"></path><defs><linearGradient id="a" x2="1" gradientTransform="rotate(90 -58.533 93.414) scale(256.206)" gradientUnits="userSpaceOnUse"><stop offset="0" stop-color="#cce6ff"></stop><stop offset="1" stop-color="#1d98ff"></stop></linearGradient><linearGradient id="b" x2="1" gradientTransform="rotate(90 22.902 112.967) scale(304.845)" gradientUnits="userSpaceOnUse"><stop offset="0" stop-color="#fff"></stop><stop offset="1" stop-color="#d0e4fc"></stop></linearGradient><linearGradient id="c" x2="1" gradientTransform="rotate(62.037 -40.668 398.319) scale(190.0375)" gradientUnits="userSpaceOnUse"><stop offset="0" stop-color="#0084ff"></stop><stop offset="1" stop-color="#004fb8"></stop></linearGradient></defs></svg>