<svg xmlns="http://www.w3.org/2000/svg" viewBox="0 0 192 192"><g fill="none" stroke-width="2"><path stroke="#5649d4" stroke-opacity=".541" d="M19.75 7.96q-.37-.33-.77-.16a.53.52 79.6 0 0-.32.47q-.28 25.93-.14 51.9c.02 2.67 1.17 3.7 3.48 4.54m42.75 24.75.75.33m6.79 10.14q-.92.74-.58 2.07m48.08 26.75-.08-1" vector-effect="non-scaling-stroke"/><path stroke="#3c3ca5" stroke-opacity=".541" d="m172.79 44-.21-3.9a1 1 0 0 0-1.5-.81L124.77 66.2" vector-effect="non-scaling-stroke"/><path stroke="#5649d4" stroke-opacity=".541" d="m119.79 68-.16-1.58a1.02 1-78.9 0 0-.5-.76L72.76 38.88a.63.63 0 0 0-.64 0q-.67.4-.41 1.37m-5.17-5L20 8.04" vector-effect="non-scaling-stroke"/><path stroke="#393890" stroke-opacity=".651" d="m172.79 44-.1 49a1.02.97 63.2 0 1-.17.56l-.28.4" vector-effect="non-scaling-stroke"/><path stroke="#3a3a8b" stroke-opacity=".706" d="M172.24 93.96 125.29 121" vector-effect="non-scaling-stroke"/><path stroke="#4e43b8" stroke-opacity=".651" d="m119.79 128.75-.03 52.17a1 1 0 0 1-1.5.86L74.5 156.54m0 0-2.24-1.49a1.01.99 17.2 0 1-.45-.83l-.1-52.22m0-61.75.1 52.7a1 .99 18.9 0 0 .39.79l1.04.81m43.26 24.91 1.79.76a1 1 0 0 0 1.39-.92l.11-51.3" vector-effect="non-scaling-stroke"/><path stroke="#393890" stroke-opacity=".651" d="m124.77 66.2.04 53.87a1 1 0 0 0 .24.65l.24.28" vector-effect="non-scaling-stroke"/><path stroke="#4e43b8" stroke-opacity=".651" d="M119.71 127.75c-.28-.38-.35-.59-.78-.83Q95.6 113.38 72.29 99.93" vector-effect="non-scaling-stroke"/><path stroke="#4e44af" stroke-opacity=".706" d="M116.5 119.46 73.24 94.55" vector-effect="non-scaling-stroke"/><path stroke="#4e43b8" stroke-opacity=".651" d="m66.54 35.25-.04 54.24a.51.51 0 0 1-.65.49q-.17-.05-.35-.19" vector-effect="non-scaling-stroke"/><path stroke="#4e44af" stroke-opacity=".706" d="M64.75 89.46 22 64.71" vector-effect="non-scaling-stroke"/></g><path fill="#090809" fill-opacity=".082" d="M19.75 7.96q-.37-.33-.77-.16a.53.52 79.6 0 0-.32.47q-.28 25.93-.14 51.9c.02 2.67 1.17 3.7 3.48 4.54q-.28.13-.48.33a1 1 0 0 0 .05 1.45q3.91 3.45 8.85 5.07 3.19 1.05 3.9 1.81 2.42 2.56 5.39 4.15 3.03 1.62 3.64 1.89 5.34 2.35 10.04 5.93a.94.92-24.4 0 0 .55.2q1.8.09 3.1 1.43 2.64 2.7 4.06 2.27 1.79-.53 3.65.22l.75.33-.18.27a.32.32 0 0 0 .11.47q.7.38.07.83a.82.82 0 0 1-.62.14l-3.14-.61a.62.62 0 0 1-.48-.43q-.1-.29-.32-.39-5.84-2.53-12-6.51c-3.6-2.32-7.75-3.91-11.47-6.48q-1.89-1.29-4-2.27-1.08-.5-.24.33.68.68 1.72.81a1.04 1.02-17.8 0 1 .58.29c2.53 2.53 6.2 3.76 8.48 5.17q9.39 5.83 19.21 11.14a1 .95 50.5 0 0 .72.09q5.45-1.39 6.44 3.73a1.02 1.01 9.7 0 0 .48.67q1.86 1.07 1.43 2.89-.92.74-.58 2.07-.05 2.26-1.38 2.15a1 1 0 0 0-1.08 1q-.02 23.25.03 43.53c.02 6.33.64 10.19 5.96 13.36q4.72 2.82 9.48 5.55c1.02.58 2.13.53 3.2 1.42 1.35 1.12 6.99 4.97 8.77 5.1a.98.97-18.6 0 1 .65.32c2.15 2.31 5.29 3.51 7.49 4.84q2.6 1.57 5.49 2.37c5.99 5.14 12.11 3.67 12.14-4.46q.09-22.53.03-45.06-.01-.91-.28-1.7-.22-.66-.48-1.32a1.01 1 69.5 0 0-1.26-.58l-.68.23-.08-1q1.6-.57.76-1.69a.79.79 0 0 1-.05-.89q.24-.39.02-.72a.41.41 0 0 1 .13-.57l1.17-.72a1.04 1.01 29.4 0 1 .57-.15c2.93.13 5.02.73 7.78-.66q4.64-2.36 8.91-5.31 1.7-.51 2.8-1.91.15-.19.37-.3l3.89-1.77q.18-.08.37-.09c1.6-.07 2.63-1.44 3.57-1.95q5.72-3.11 11.26-6.53c4.08-2.52 8.85-5.07 12.93-8.68a1.03 1 70.1 0 0 .33-.73q.54-24.59-.11-50.08-.02-.92-.4-.61a.41.4-39.6 0 1-.58-.05q-.24-.3-.64-.34l-.21-3.9a1 1 0 0 0-1.5-.81L124.77 66.2l-4.98 1.8-.16-1.58a1.02 1-78.9 0 0-.5-.76L72.76 38.88a.63.63 0 0 0-.64 0q-.67.4-.41 1.37-.83 2.61-1.9-.09a1 .95-87.1 0 0-.44-.51q-2.56-1.42-2.83-4.4L20 8.04q.42.02.62-.29a.41.4 42.8 0 0-.02-.45q-.79-1.14.37-1.85a1.09 1.02-56.4 0 1 .59-.14l3.61.26a.97.97 0 0 1 .62.27c1.63 1.53 3.6 1.58 5.23 2.7q4.62 3.17 9.56 5.82a1.06 1.06 0 0 1 .46.52q.58 1.5 2.16 1.64a1.01 1.01 0 0 1 .52.21q4.34 3.32 9.37 5.41c2.18.91 3.7 2.86 6.25 3.55a1 .94-7.4 0 1 .58.42c.89 1.38 2.34 1.49 3.39 2.22q2.13 1.47 4.3 2.95.17.11.28.28 2.26 3.5 6.17 4.25a.99.99 0 0 1 .66.45l.54.86a1.01 1.01 0 0 0 1.14.42q.96-.3 1.47.26a.8.79 65.4 0 0 .66.25l1.07-.09a1.08 1.07 59.1 0 1 .63.16l5.09 3.24q.21.13.45.16.78.07 1.25.65a.99.97 73.8 0 0 .64.36q1.53.21 2.21 1.56a.98.96 84.8 0 0 .6.51q3.89 1.19 6.93 3.85c1.46 1.28 2.72 1.72 4.37 2.44 1.95.86 3.51 2.14 5.59 2.83a1.05 1.03 83 0 1 .56.45c.83 1.43 3.27 1.49 4.76 2.4 3.35 2.05 8.69 5.89 12.48 3.41q1.81-1.18 1.89-1.22 4.94-2.69 9.76-5.69.63-.39 1.82-.32a.97.96-64.3 0 0 .73-.26q3.38-3.09 7.43-5.15.22-.11.36-.31c1.47-2.05 3.59-2.06 5.3-3.12q4.37-2.73 8.97-5.01c3.71-1.84 5.92-3.53 10.34-3.48a.51.51 0 0 1 .5.54l-.01.32a.26.26 0 0 0 .31.27c3.12-.63 5.07 1.37 6.13 4.09l-.23.73q-.09.3.62.89a1.01.98 21.2 0 1 .36.78c-.2 15.83-.81 32.13.22 47.91q.12 1.75-.56 3.38-.19.46-.68 2.66-.33 1.5-2.6 2.92a1 .97-11.4 0 0-.44.64q-.26 1.24-1.66 1.48a1.02.96-70.7 0 0-.54.28q-1.87 1.89-4.51 2.49a.92.91-74.6 0 0-.49.28q-1.57 1.61-3.72 1.98a.27.25-5.5 0 0-.22.25v.3a.29.23 81.5 0 1-.15.26q-2.11.85-4.12 1.95c-.61.33-.95 1.01-1.85.96a1.02 1.02 0 0 0-.72.25q-4.25 3.77-9.52 5.84a.99.98 87.1 0 0-.6.67q-.19.71-1.11.48a1.02 1.02 0 0 0-1.04.37q-1.11 1.45-2.97 1.38a1 1 0 0 0-.9.47q-.9 1.47-2.49 1.56-1.68.08-4.05 1.96-2.25 1.78-5.06 2.6c-.72.2-1.87-.08-2.47.86a1.02 1.01-75.1 0 1-.79.46l-.54.03a1 1 0 0 0-.94 1.04q.06 1.46.27 2.91.29 2.01.29 3.33.04 22 .01 44.01 0 1.6-1.16 6.14a1.04.97 76.6 0 1-.26.46l-1.84 1.84a1.03 1.02-60.7 0 1-.94.27q-.77-.19-1.08.5-.28.6-.4.23l-.06-.19a.16.08 68.9 0 0-.15-.13q-1.75.99-3.41-.2a1.03 1.01-27.2 0 0-.58-.18q-1.99-.01-3.25-1.43a.99.98-16.7 0 0-.6-.32q-.65-.1-.62-.43a.21.21 0 0 0-.25-.22l-.52.11a1.01 1 64.2 0 1-.99-.35q-.5-.61-1.24-.53a.99.99 0 0 1-.88-.36q-2.48-2.98-6.42-3.61a1.01 1 72 0 1-.58-.3c-1.7-1.82-4.04-2.33-5.83-3.62q-1.7-1.23-3.59-2.15-2.43-1.18-4.03-2.23-1.93-1.27-4.01-2.35c-.78-.4-1.87-.16-2.45-1.36a1.06.98 89.9 0 0-.4-.43l-3.99-2.31q-.23-.13-.49-.13c-1.94-.04-1.72-2.38-3.37-2.15a1.02 1.02 0 0 1-.82-.26c-1.92-1.78-4.39-4.59-4.16-7.19a.33.33 0 0 0-.29-.36l-.32-.04a.41.4-86.9 0 1-.36-.41l.1-52.37a4.74 2.89-37.2 0 1 .99-2.52q.35-.47-.1-.93a1 1 0 0 1-.15-1.19q.5-.88-.58-1.09-.16-.04-.3-.12-2.83-1.62-6.07-1.49a1.02 1.01 67.9 0 1-.8-.34q-1.06-1.23-2.62-1.56a.98.98 0 0 1-.65-.47q-.44-.75-1.23-.95-.21-.06-.38-.2l-2.96-2.44a1.01 1 52.4 0 0-1.04-.14q-1.24.54-1.99-.9a.96.94 1.6 0 0-.38-.39l-9.21-5.4a.99.94-85.6 0 1-.44-.54l-.15-.46a.34.13-25.8 0 0-.37.03q-.9.46-1.49-.6a1.02.99-.7 0 0-.43-.41q-3.62-1.75-7.23-3.52-.75-.36-3.69-2.23-1.83-1.17-3.98-1.81-1.15-.35-2.7-1.78-2.93-2.71-4.29-6.24-.96-2.47-.91-7.28.17-17.95.16-35.91c0-4.38-1.14-11.49 1.62-15.16a.98.98 0 0 1 .95-.38q.65.1 1.09-.28a.8.79-46.2 0 1 1.01-.03q.41.31.42.7a.41.4 80.7 0 0 .52.38q.51-.15.88.67Zm4.75 62.17q2.17 1.55 4.58 2.78a.26.26 0 0 0 .34-.09q.18-.28-.2-.56-2.16-1.66-4.39-2.69-3.2-1.49-.33.56Z"/><path fill="#5c4ee5" d="m19.75 7.96.25.08 46.54 27.21-.04 54.24a.51.51 0 0 1-.65.49q-.17-.05-.35-.19l-.75-.33L22 64.71c-2.31-.84-3.46-1.87-3.48-4.54q-.14-25.97.14-51.9a.53.52 79.6 0 1 .32-.47q.4-.17.77.16Z"/><path fill="#211f20" fill-opacity=".298" d="M66.54 35.25q.27 2.98 2.83 4.4a1 .95-87.1 0 1 .44.51q1.07 2.7 1.9.09l.1 52.7a1 .99 18.9 0 0 .39.79l1.04.81q2.67 4.56 7.29 6.62c2.52 1.12 4.54 2.74 6.75 3.81q1.86.89 3.58 2.02c3.09 2.01 6.35 3.42 9.35 5.56q1.79 1.27 10.26 5.6c2.2 1.12 3.15 3.02 6.03 1.3l1.79.76a1 1 0 0 0 1.39-.92l.11-51.3 4.98-1.8.04 53.87a1 1 0 0 0 .24.65l.24.28q.12.29-.02.52a.32.32 0 0 0 .23.49q2.89.44 5.54-.96c.2-.1.7-.47.14-.62q-.5-.14-.1-.46 1.41-1.11 3.17-1.43l-.58.46q-1.8 1.43.27.45l5.06-2.41q-4.27 2.95-8.91 5.31c-2.76 1.39-4.85.79-7.78.66a1.04 1.01 29.4 0 0-.57.15l-1.17.72a.41.41 0 0 0-.13.57q.22.33-.02.72a.79.79 0 0 0 .05.89q.84 1.12-.76 1.69c-.28-.38-.35-.59-.78-.83Q95.6 113.38 72.29 99.93q.43-1.82-1.43-2.89a1.02 1.01 9.7 0 1-.48-.67q-.99-5.12-6.44-3.73a1 .95 50.5 0 1-.72-.09q-9.82-5.31-19.21-11.14c-2.28-1.41-5.95-2.64-8.48-5.17a1.04 1.02-17.8 0 0-.58-.29q-1.04-.13-1.72-.81-.84-.83.24-.33 2.11.98 4 2.27c3.72 2.57 7.87 4.16 11.47 6.48q6.16 3.98 12 6.51.22.1.32.39a.62.62 0 0 0 .48.43l3.14.61a.82.82 0 0 0 .62-.14q.63-.45-.07-.83a.32.32 0 0 1-.11-.47l.18-.27q.18.14.35.19a.51.51 0 0 0 .65-.49l.04-54.24Z"/><path fill="#4040b2" d="m172.79 44-.1 49a1.02.97 63.2 0 1-.17.56l-.28.4L125.29 121l-.24-.28a1 1 0 0 1-.24-.65l-.04-53.87 46.31-26.91a1 1 0 0 1 1.5.81l.21 3.9Z"/><path fill="#5c4ee5" d="m119.79 68-.11 51.3a1 1 0 0 1-1.39.92l-1.79-.76-43.26-24.91-1.04-.81a1 .99 18.9 0 1-.39-.79l-.1-52.7q-.26-.97.41-1.37a.63.63 0 0 1 .64 0l46.37 26.78a1.02 1-78.9 0 1 .5.76l.16 1.58Z"/><path fill="#211f20" fill-opacity=".298" d="M172.79 44q.4.04.64.34a.41.4-39.6 0 0 .58.05q.38-.31.4.61.65 25.49.11 50.08a1.03 1 70.1 0 1-.33.73c-4.08 3.61-8.85 6.16-12.93 8.68q-5.54 3.42-11.26 6.53c-.94.51-1.97 1.88-3.57 1.95q-.19.01-.37.09l-3.89 1.77q-.22.11-.37.3-1.1 1.4-2.8 1.91l-5.06 2.41q-2.07.98-.27-.45l.58-.46q5.11-2.09 6.75-3.52 1.52-1.33 2.93-1.49a1 1 0 0 0 .61-.3c2.64-2.76 6.69-3.23 9.56-5.66 3.29-2.77 7.11-4.09 10.79-6.28q1.16-.68 2.85-1.53 1.08-.54-.1-.77-1.34-.26 1.23-1.32 2.3-.95 1.76-.31-1.19 1.4.41.5 2.03-1.15 1.2-3.9l.28-.4a1.02.97 63.2 0 0 .17-.56l.1-49Z"/><path fill="#2b2a2a" fill-opacity=".408" d="m22 64.71 42.75 24.75q-1.86-.75-3.65-.22-1.42.43-4.06-2.27-1.3-1.34-3.1-1.43a.94.92-24.4 0 1-.55-.2q-4.7-3.58-10.04-5.93-.61-.27-3.64-1.89-2.97-1.59-5.39-4.15-.71-.76-3.9-1.81-4.94-1.62-8.85-5.07a1 1 0 0 1-.05-1.45q.2-.2.48-.33Z"/><path fill="#211f20" fill-opacity=".298" d="M24.5 70.13q-2.87-2.05.33-.56 2.23 1.03 4.39 2.69.38.28.2.56a.26.26 0 0 1-.34.09q-2.41-1.23-4.58-2.78Z"/><path fill="#2b2a2a" fill-opacity=".408" d="M172.24 93.96q.83 2.75-1.2 3.9-1.6.9-.41-.5.54-.64-1.76.31-2.57 1.06-1.23 1.32 1.18.23.1.77-1.69.85-2.85 1.53c-3.68 2.19-7.5 3.51-10.79 6.28-2.87 2.43-6.92 2.9-9.56 5.66a1 1 0 0 1-.61.3q-1.41.16-2.93 1.49-1.64 1.43-6.75 3.52-1.76.32-3.17 1.43-.4.32.1.46c.56.15.06.52-.14.62q-2.65 1.4-5.54.96a.32.32 0 0 1-.23-.49q.14-.23.02-.52l46.95-27.04Zm-99 .59 43.26 24.91c-2.88 1.72-3.83-.18-6.03-1.3q-8.47-4.33-10.26-5.6c-3-2.14-6.26-3.55-9.35-5.56q-1.72-1.13-3.58-2.02c-2.21-1.07-4.23-2.69-6.75-3.81q-4.62-2.06-7.29-6.62Z"/><path fill="#5c4ee5" d="M72.29 99.93q23.31 13.45 46.64 26.99c.43.24.5.45.78.83l.08 1-.03 52.17a1 1 0 0 1-1.5.86L74.5 156.54l-2.24-1.49a1.01.99 17.2 0 1-.45-.83l-.1-52.22q-.34-1.33.58-2.07Z"/><path fill="#211f20" fill-opacity=".298" d="m71.71 102 .1 52.22a1.01.99 17.2 0 0 .45.83l2.24 1.49-.18.92a1 .98 24.2 0 0 .39 1q8.7 6.37 18.49 10.86 1.26.58.81 1.11a.51.51 0 0 0 .13.77q2.79 1.63 6.8 3.36.23.1.36.23 1.06 1.05-.3.42l-.73-.34q-5.92-2.76-.4.72 1.65 1.03 3.56 2 2.84 1.45 6.89 4.05-2.89-.8-5.49-2.37c-2.2-1.33-5.34-2.53-7.49-4.84a.98.97-18.6 0 0-.65-.32c-1.78-.13-7.42-3.98-8.77-5.1-1.07-.89-2.18-.84-3.2-1.42q-4.76-2.73-9.48-5.55c-5.32-3.17-5.94-7.03-5.96-13.36q-.05-20.28-.03-43.53a1 1 0 0 1 1.08-1q1.33.11 1.38-2.15Z"/><path fill="#211f20" fill-opacity=".298" d="M110.32 181.64q-4.05-2.6-6.89-4.05-1.91-.97-3.56-2-5.52-3.48.4-.72l.73.34q1.36.63.3-.42-.13-.13-.36-.23-4.01-1.73-6.8-3.36a.51.51 0 0 1-.13-.77q.45-.53-.81-1.11-9.79-4.49-18.49-10.86a1 .98 24.2 0 1-.39-1l.18-.92 43.76 25.24a1 1 0 0 0 1.5-.86l.03-52.17.68-.23a1.01 1 69.5 0 1 1.26.58q.26.66.48 1.32.27.79.28 1.7.06 22.53-.03 45.06c-.03 8.13-6.15 9.6-12.14 4.46Z"/></svg>