<?xml version="1.0" standalone="no"?>
<!DOCTYPE svg PUBLIC "-//W3C//DTD SVG 20010904//EN"
 "http://www.w3.org/TR/2001/REC-SVG-20010904/DTD/svg10.dtd">
<svg version="1.0" xmlns="http://www.w3.org/2000/svg"
 width="716.000000pt" height="447.000000pt" viewBox="0 0 716.000000 447.000000"
 preserveAspectRatio="xMidYMid meet">

<g transform="translate(0.000000,447.000000) scale(0.100000,-0.100000)"
fill="#000000" stroke="none">
<path d="M0 2235 l0 -2235 3580 0 3580 0 0 2235 0 2235 -3580 0 -3580 0 0
-2235z m6898 283 c-3 -1877 3 -1720 -73 -1873 -86 -176 -242 -304 -440 -362
-57 -17 -228 -18 -3088 -21 l-3027 -2 2 1687 3 1688 27 80 c85 250 282 424
533 470 56 11 654 13 3068 14 l2997 1 -2 -1682z"/>
<path d="M815 4086 c-169 -42 -319 -166 -393 -324 -52 -113 -52 -113 -52 -764
0 -399 3 -608 10 -608 6 0 10 -5 10 -11 0 -5 -4 -7 -10 -4 -6 4 -10 -16 -10
-54 0 -48 3 -60 18 -64 16 -4 16 -5 0 -6 -15 -1 -18 -10 -18 -51 0 -41 3 -50
18 -51 14 0 14 -2 -3 -9 -18 -8 -18 -9 -2 -9 10 -1 15 -6 12 -11 -4 -6 -11 -8
-16 -5 -5 4 -9 -15 -9 -44 0 -30 5 -51 13 -54 10 -4 10 -6 0 -6 -18 -1 -18
-381 0 -400 10 -11 9 -13 0 -7 -10 5 -13 -8 -13 -53 0 -49 3 -61 16 -61 8 0
12 -5 9 -10 -4 -6 -11 -8 -16 -5 -5 4 -9 -16 -9 -44 0 -42 3 -51 18 -52 14 0
14 -2 -3 -8 l-20 -8 20 -5 c16 -5 17 -6 3 -7 -17 -1 -18 -32 -18 -496 l0 -495
2988 2 2987 3 62 23 c168 63 302 197 365 365 l23 62 3 1643 2 1642 -2967 -1
c-2319 -1 -2979 -3 -3018 -13z m1495 -180 c0 -138 1 -139 71 -134 52 4 59 2
59 -14 0 -16 -10 -18 -86 -18 l-87 0 7 46 c3 26 6 84 6 129 0 66 3 82 15 82
12 0 15 -17 15 -91z m640 79 c30 -15 39 -38 20 -50 -5 -3 -20 1 -32 9 -47 33
-100 15 -118 -39 -30 -91 48 -168 119 -119 17 12 26 13 34 5 8 -8 5 -17 -11
-34 -17 -17 -34 -22 -72 -22 -43 0 -54 5 -82 33 -30 30 -33 37 -33 98 0 63 1
67 37 100 43 38 88 45 138 19z m1435 -102 c26 -65 49 -124 52 -130 3 -8 -4
-13 -20 -13 -18 0 -27 7 -31 25 -6 23 -11 25 -65 25 -52 0 -59 -3 -69 -25 -7
-15 -20 -25 -32 -25 -11 0 -20 2 -20 5 0 6 89 235 96 246 3 5 13 9 24 9 14 0
29 -27 65 -117z m616 -3 c-3 -138 -26 -198 -59 -157 -7 8 -6 18 4 31 10 14 14
51 14 134 0 111 0 113 22 110 21 -3 22 -6 19 -118z m-2421 23 c17 -12 25 -13
28 -5 2 7 10 12 18 12 11 0 14 -18 14 -86 0 -85 0 -86 -22 -80 -13 3 -37 0
-55 -6 -84 -31 -140 86 -74 153 34 33 56 36 91 12z m540 0 c17 -12 25 -13 28
-5 2 7 10 12 18 12 11 0 14 -18 14 -85 l0 -85 -32 0 c-18 -1 -51 -1 -72 -2
-48 -2 -76 27 -76 78 0 83 62 128 120 87z m433 -14 c9 -12 17 -31 17 -44 0
-25 -22 -35 -82 -35 -43 0 -51 -20 -15 -38 15 -9 32 -9 54 -3 22 6 35 6 39 -1
12 -19 -17 -33 -67 -33 -62 0 -89 26 -89 87 0 31 7 46 30 70 26 25 36 29 63
24 18 -3 40 -16 50 -27z m102 10 c9 16 58 14 53 -1 -3 -7 -13 -15 -24 -16 -31
-6 -44 -32 -44 -89 0 -39 -4 -53 -14 -53 -15 0 -23 39 -26 119 -1 49 17 71 37
45 7 -10 13 -11 18 -5z m219 5 c12 -11 16 -36 16 -90 0 -67 -2 -74 -20 -74
-18 0 -20 7 -20 70 l0 70 -28 0 c-41 0 -52 -17 -52 -82 0 -51 -2 -58 -20 -58
-18 0 -20 7 -20 85 0 77 2 85 19 85 11 0 21 -5 23 -12 3 -8 11 -7 28 5 30 21
54 22 74 1z m180 -6 c13 -13 27 -33 31 -45 5 -19 1 -25 -20 -33 -14 -5 -44
-10 -66 -10 -44 0 -50 -12 -16 -35 18 -11 31 -12 57 -5 43 12 40 13 40 -5 0
-17 -39 -35 -76 -35 -35 0 -84 51 -84 87 0 39 21 75 50 90 36 18 56 16 84 -9z
m1129 -9 c9 -12 17 -31 17 -44 0 -25 -22 -35 -82 -35 -27 0 -38 -4 -38 -15 0
-25 37 -38 73 -26 35 13 64 -2 37 -20 -71 -45 -150 -6 -150 75 0 37 5 48 32
71 37 31 82 29 111 -6z m-1933 -11 c0 -18 11 -50 24 -72 l23 -38 21 30 c14 19
22 45 22 71 0 34 3 41 20 41 17 0 20 -7 20 -41 0 -48 -50 -129 -80 -129 -30 0
-82 75 -88 126 -4 40 -3 44 17 44 17 0 21 -6 21 -32z m1260 -26 c0 -78 29
-104 72 -65 13 12 18 30 18 70 0 46 2 53 20 53 18 0 20 -7 20 -85 0 -78 -2
-85 -20 -85 -12 0 -20 7 -20 16 0 15 -2 15 -25 0 -27 -18 -62 -21 -84 -7 -16
10 -27 97 -17 135 3 15 13 26 21 26 12 0 15 -13 15 -58z m210 31 l22 -28 23
28 c23 26 55 37 55 18 0 -5 -11 -23 -25 -39 -14 -17 -25 -33 -25 -37 0 -4 11
-20 25 -37 14 -16 25 -34 25 -39 0 -19 -33 -8 -52 17 l-21 25 -26 -25 c-27
-25 -51 -34 -51 -18 0 4 11 23 25 41 25 35 23 53 -9 81 -9 7 -16 19 -16 26 0
23 27 16 50 -13z m553 -21 c-9 -79 25 -115 69 -75 13 12 18 30 18 70 0 46 2
53 20 53 18 0 20 -7 20 -85 0 -78 -2 -85 -20 -85 -11 0 -20 7 -20 16 0 14 -2
14 -22 0 -28 -20 -72 -21 -87 -2 -32 38 -25 156 9 156 17 0 18 -5 13 -48z
m214 21 l23 -28 21 28 c21 27 49 37 49 16 0 -6 -11 -24 -25 -41 -26 -31 -24
-50 9 -78 9 -7 16 -19 16 -26 0 -23 -27 -16 -50 14 l-22 27 -22 -27 c-12 -16
-29 -28 -39 -28 -23 0 -22 5 8 44 14 18 25 36 25 40 0 4 -11 22 -25 40 -30 39
-31 46 -8 46 10 0 28 -12 40 -27z m-2344 -395 c6 -22 6 -22 -8 -4 -14 19 -16
19 -28 2 -12 -16 -13 -16 -13 3 0 30 42 29 49 -1z m450 15 c-7 -2 -19 -2 -25
0 -7 3 -2 5 12 5 14 0 19 -2 13 -5z m142 -3 c-5 -9 39 -88 132 -239 13 -20 28
-46 35 -58 15 -31 23 -29 34 10 6 17 16 32 24 32 8 0 14 8 14 18 -1 12 4 17
15 15 10 -2 26 3 35 11 14 12 22 12 37 3 10 -7 25 -12 34 -12 8 0 12 -6 9 -14
-3 -9 7 -20 27 -30 30 -15 34 -15 53 1 21 18 21 17 0 -7 -12 -14 -19 -31 -16
-39 2 -8 0 -11 -6 -7 -6 3 -13 2 -16 -3 -4 -5 1 -8 9 -7 14 2 35 29 71 91 6
11 39 65 73 121 33 55 61 106 61 112 0 7 15 11 38 11 30 -2 32 -3 9 -6 -23 -4
-38 -24 -99 -126 -40 -67 -72 -130 -72 -139 0 -9 -3 -15 -7 -12 -7 4 -27 -25
-70 -103 -12 -22 -13 -29 -3 -15 9 12 21 22 27 22 6 0 8 -3 4 -6 -7 -8 13 -67
27 -76 6 -4 112 -8 236 -8 167 0 230 3 239 13 11 9 12 9 7 0 -5 -10 39 -13
196 -15 l203 -3 3 -377 2 -378 -402 0 c-222 0 -398 -4 -392 -8 6 -4 19 -28 30
-54 10 -27 22 -48 27 -48 4 0 7 -7 7 -15 0 -9 8 -30 17 -48 9 -18 16 -35 16
-38 -1 -3 33 -7 75 -8 89 -2 111 -11 31 -12 -30 0 -63 -5 -74 -10 -19 -9 -18
-9 3 -5 12 2 22 3 22 1 0 -2 3 -10 6 -19 4 -11 0 -16 -12 -16 -9 0 -15 -3 -11
-6 3 -4 49 -6 101 -6 l96 0 0 -44 c0 -42 -1 -44 -30 -44 -28 0 -30 3 -30 36 0
21 -4 33 -10 29 -5 -3 -10 -19 -10 -35 0 -15 -7 -30 -15 -34 -15 -5 -19 8 -16
47 1 9 -2 17 -7 17 -6 0 -12 -15 -14 -34 -2 -21 0 -34 7 -33 5 1 9 -4 7 -12
-2 -9 3 -11 13 -7 11 4 14 2 9 -6 -5 -8 -1 -9 12 -4 10 4 15 4 11 0 -4 -4 -1
-14 6 -22 9 -12 5 -11 -21 2 -19 10 -36 15 -40 12 -3 -3 -1 -6 5 -6 5 0 23
-11 39 -25 16 -14 38 -25 49 -25 15 0 17 -3 7 -9 -25 -15 12 -20 155 -21 76 0
184 -3 240 -7 l102 -6 1 -111 c1 -61 1 -126 2 -143 0 -20 6 -33 13 -33 7 0 15
-9 18 -20 3 -12 14 -20 26 -20 14 0 19 -5 15 -15 -4 -8 -1 -15 4 -15 11 0 21
-24 28 -68 6 -44 9 -56 15 -67 4 -5 5 -19 3 -30 -1 -11 4 -28 13 -37 9 -10 12
-18 8 -18 -5 0 -4 -5 3 -12 7 -7 12 -16 12 -22 0 -5 -7 -1 -16 10 -15 18 -15
18 -4 -3 6 -14 16 -20 25 -17 12 5 15 -3 15 -39 0 -28 -5 -49 -13 -54 -8 -4
-19 -17 -25 -28 -10 -17 -11 -15 -6 15 5 31 4 33 -9 18 -8 -10 -17 -15 -20
-11 -4 3 -7 -2 -7 -11 0 -12 -5 -16 -15 -12 -9 3 -15 0 -15 -7 0 -19 -41 -100
-47 -93 -6 6 -73 -71 -73 -85 0 -14 -78 -11 -138 5 -42 12 -53 12 -49 2 3 -7
1 -19 -4 -27 -8 -12 -10 -12 -8 1 3 31 -1 41 -13 34 -9 -5 -9 -2 1 9 15 19 26
23 15 5 -5 -7 -3 -8 6 -3 9 6 2 17 -26 41 -21 19 -43 34 -49 34 -5 0 -3 5 5
10 13 8 12 10 -2 10 -10 0 -18 -5 -18 -12 0 -6 -6 -3 -14 8 -13 17 -12 21 2
39 16 19 16 19 -1 5 -17 -12 -20 -12 -28 3 -6 9 -17 17 -26 17 -13 0 -12 -5 8
-27 18 -21 19 -24 4 -13 -11 8 -26 21 -34 30 -10 11 -14 12 -18 3 -3 -9 -10
-10 -24 -3 -22 12 -479 13 -479 1 0 -4 5 -12 12 -19 9 -9 9 -12 1 -12 -7 0
-24 17 -39 37 -41 56 -48 62 -30 25 9 -18 14 -37 11 -43 -4 -5 -1 -8 7 -7 28
6 11 -22 -34 -56 -26 -20 -50 -36 -53 -36 -15 0 -65 42 -60 50 3 5 -1 11 -7
13 -10 4 -9 8 2 16 12 9 11 11 -8 11 -13 0 -21 -4 -17 -9 3 -5 1 -12 -4 -15
-14 -9 -8 13 18 64 19 39 20 42 2 20 l-19 -24 -1 63 c0 58 1 62 15 45 13 -16
13 -14 -1 13 -12 27 -15 81 -15 326 l0 294 -207 7 c-115 4 -218 10 -231 13
l-23 5 20 20 c12 10 21 23 21 29 0 6 4 8 9 4 5 -3 13 0 17 6 4 8 3 9 -4 5 -7
-4 -12 -2 -12 4 0 6 -5 8 -11 5 -6 -4 -5 2 2 13 7 12 17 18 21 16 4 -3 8 3 8
14 0 10 3 22 8 26 4 4 8 20 8 34 1 15 2 37 3 50 2 39 31 27 31 -13 l0 -36 24
18 c13 10 22 20 20 22 -2 2 1 12 7 22 5 11 8 19 7 19 -2 1 -32 4 -68 7 -85 7
-89 13 -9 13 66 0 109 18 109 44 0 8 7 19 15 26 8 7 13 16 10 20 -3 5 -1 11 5
15 5 3 10 14 10 24 0 10 9 26 20 36 11 10 17 21 15 26 -10 15 15 20 90 20 l75
0 2 222 c1 122 2 287 3 367 2 80 1 153 -2 163 -3 12 -15 17 -46 18 -23 1 -34
3 -24 6 15 4 22 21 18 46 0 4 4 7 9 7 6 0 3 11 -6 25 -9 14 -14 28 -10 32 3 3
6 0 6 -7 0 -10 3 -11 11 -3 8 8 8 17 -1 33 -10 18 -14 20 -22 9 -8 -11 -9 -10
-4 4 4 12 -23 67 -78 161 l-85 142 -42 3 c-67 3 -60 11 10 11 39 0 60 -4 56
-10z m468 3 c-84 -2 -222 -2 -305 0 -84 1 -16 3 152 3 168 0 236 -2 153 -3z
m300 0 c-13 -2 -33 -2 -45 0 -13 2 -3 4 22 4 25 0 35 -2 23 -4z m490 -15 c6
-20 5 -20 -10 -5 -15 14 -18 14 -28 1 -9 -13 -11 -12 -11 5 0 29 42 29 49 -1z
m64 16 c-3 -3 -12 -4 -19 -1 -8 3 -5 6 6 6 11 1 17 -2 13 -5z m520 0 c-3 -3
-12 -4 -19 -1 -8 3 -5 6 6 6 11 1 17 -2 13 -5z m1013 -1459 l0 -1466 -57 3
-57 3 0 1462 -1 1463 58 0 57 0 0 -1465z m-3510 1395 c-6 -11 -13 -20 -16 -20
-2 0 0 9 6 20 6 11 13 20 16 20 2 0 0 -9 -6 -20z m1940 0 c6 -11 8 -20 6 -20
-3 0 -10 9 -16 20 -6 11 -8 20 -6 20 3 0 10 -9 16 -20z m-1472 -158 c2 -16 10
-22 27 -22 13 0 27 -5 30 -10 5 -8 11 -7 20 0 22 19 60 8 63 -17 3 -19 -2 -23
-25 -24 l-28 -2 28 -4 c32 -5 36 -19 7 -28 -24 -8 -60 11 -60 31 0 8 -4 13 -9
10 -5 -3 -7 -15 -4 -26 7 -25 -12 -26 -27 -2 -10 16 -10 16 -20 0 -21 -34 -30
-17 -30 53 0 52 3 70 13 67 6 -3 13 -14 15 -26z m-1708 8 c0 -5 -7 -10 -15
-10 -11 0 -15 -12 -15 -50 0 -38 -4 -50 -15 -50 -11 0 -15 12 -15 50 0 38 -4
50 -15 50 -8 0 -15 5 -15 10 0 6 20 10 45 10 25 0 45 -4 45 -10z m60 -11 c0
-5 -10 -9 -21 -9 -18 0 -19 2 -9 15 12 15 30 12 30 -6z m310 -2 c0 -18 5 -23
23 -23 18 1 22 -5 25 -36 2 -22 -1 -38 -7 -38 -6 0 -11 14 -11 31 0 38 -24 35
-28 -4 -6 -51 -22 -27 -22 33 0 33 4 60 10 60 6 0 10 -10 10 -23z m300 0 c0
-18 5 -23 23 -23 19 1 22 -5 25 -42 2 -29 0 -42 -7 -37 -6 3 -11 20 -11 36 0
38 -24 34 -28 -4 -6 -51 -22 -27 -22 33 0 33 4 60 10 60 6 0 10 -10 10 -23z
m808 4 c3 -9 -2 -11 -17 -6 -28 8 -28 -16 -1 -33 25 -15 26 -40 3 -58 -24 -18
-43 -17 -43 1 0 8 7 15 15 15 22 0 18 23 -5 38 -23 14 -26 32 -8 50 16 16 50
12 56 -7z m1166 -2 c22 -32 6 -63 -33 -67 -23 -2 -31 -8 -31 -23 0 -10 -7 -19
-15 -19 -12 0 -15 14 -15 65 l0 65 39 0 c29 0 44 -6 55 -21z m274 -41 c-3 -57
-5 -62 -28 -63 -36 -3 -60 12 -60 38 0 28 17 47 42 47 11 0 18 7 18 20 0 11 7
20 15 20 13 0 15 -11 13 -62z m862 52 c0 -5 -11 -10 -25 -10 -16 0 -25 -6 -25
-15 0 -9 9 -15 25 -15 14 0 25 -4 25 -10 0 -5 -11 -10 -24 -10 -19 0 -25 -6
-28 -25 -6 -50 -23 -29 -26 33 l-3 62 41 0 c22 0 40 -4 40 -10z m30 -49 c0
-33 -4 -63 -10 -66 -6 -4 -10 18 -10 59 0 37 4 66 10 66 6 0 10 -26 10 -59z
m-3700 34 c0 -8 7 -15 15 -15 8 0 15 -4 15 -10 0 -5 -7 -10 -15 -10 -21 0 -19
-30 3 -46 15 -12 15 -13 -9 -14 -24 0 -27 5 -31 38 -5 42 0 72 13 72 5 0 9 -7
9 -15z m2235 -15 c-3 -5 -12 -10 -18 -10 -7 0 -6 4 3 10 19 12 23 12 15 0z
m-2277 -12 c20 -20 13 -38 -15 -39 l-28 -2 28 -4 c32 -5 27 -23 -7 -23 -35 0
-52 25 -38 55 12 27 40 33 60 13z m140 0 c20 -20 13 -38 -15 -39 l-28 -2 28
-4 c35 -6 35 -23 -1 -23 -48 0 -67 34 -36 64 19 19 36 20 52 4z m122 3 c0 -5
-9 -11 -20 -14 -11 -3 -20 -10 -20 -17 0 -7 9 -14 20 -17 11 -3 20 -9 20 -14
0 -13 -34 -11 -48 3 -25 25 -6 68 30 68 10 0 18 -4 18 -9z m168 -3 c20 -20 13
-38 -15 -39 l-28 -1 30 -7 c29 -7 29 -7 8 -19 -17 -10 -25 -9 -44 7 -21 16
-22 22 -11 45 12 28 40 34 60 14z m72 3 c0 -5 -7 -11 -15 -15 -9 -3 -15 -18
-15 -36 0 -18 -4 -29 -10 -25 -5 3 -10 24 -10 46 0 35 3 39 25 39 14 0 25 -4
25 -9z m64 0 c3 -5 -3 -11 -14 -14 -27 -7 -25 -33 3 -41 18 -5 19 -8 8 -15
-32 -21 -70 24 -51 60 11 19 45 26 54 10z m164 -3 c20 -20 13 -38 -15 -39
l-28 -2 28 -4 c30 -5 35 -18 11 -27 -18 -7 -64 18 -64 35 0 39 42 63 68 37z
m52 -19 c0 -38 24 -35 28 4 5 44 22 31 22 -17 0 -41 -1 -44 -27 -42 -41 2 -53
13 -53 52 0 24 5 34 15 34 10 0 15 -10 15 -31z m97 17 c-10 -24 7 -28 24 -5
12 17 22 20 43 15 37 -9 36 -45 -1 -47 l-28 -2 28 -4 c30 -5 36 -18 11 -27
-19 -7 -54 10 -54 27 0 6 -7 1 -16 -11 -17 -25 -34 -29 -34 -7 0 8 5 15 12 15
6 0 3 6 -7 14 -21 15 -14 46 11 46 10 0 14 -6 11 -14z m621 -33 c4 -50 -15
-59 -20 -10 -4 40 -21 42 -28 3 -7 -44 -25 -37 -28 11 l-3 42 38 -2 c37 -2 38
-3 41 -44z m102 1 c0 -42 0 -42 -34 -40 -44 4 -56 12 -56 40 0 31 18 45 57 44
32 -1 33 -2 33 -44z m1059 29 c10 -17 10 -17 11 -1 0 13 8 17 38 15 36 -2 37
-3 40 -44 4 -50 -15 -59 -20 -10 -4 42 -22 41 -26 -1 -4 -36 -23 -39 -32 -6
-4 16 -11 18 -35 13 l-30 -7 28 -1 c18 -1 27 -6 25 -13 -7 -20 -49 -15 -64 7
-12 18 -11 24 2 43 18 26 49 29 63 5z m233 -17 c-3 -20 0 -27 10 -24 7 3 14
17 16 31 5 44 22 31 22 -17 0 -43 0 -44 -32 -41 -18 2 -36 3 -40 4 -5 1 -8 19
-8 42 0 33 3 40 18 37 12 -2 16 -11 14 -32z m946 -10 c-3 -36 -6 -41 -28 -41
-39 0 -60 13 -60 38 0 32 18 46 57 45 33 -1 34 -2 31 -42z m85 35 c4 0 7 -14
7 -31 0 -30 -24 -51 -47 -43 -7 3 -13 -2 -13 -11 0 -9 -4 -16 -10 -16 -5 0
-10 24 -10 54 l0 54 33 -2 c17 -2 35 -4 40 -5z m97 -6 c21 -25 8 -60 -22 -63
-16 -2 -28 -9 -28 -18 0 -8 -6 -14 -12 -14 -9 0 -13 18 -14 54 l0 54 33 0 c18
0 37 -6 43 -13z m42 -10 c4 -35 22 -36 26 -2 4 29 19 36 28 12 8 -19 -41 -95
-61 -95 -18 0 -20 17 -4 22 9 3 9 9 0 25 -13 26 -15 63 -2 63 5 0 11 -11 13
-25z m-1756 -97 c-6 -16 -13 -23 -15 -16 -2 7 -9 17 -15 21 -7 5 -3 6 8 3 13
-4 17 -2 13 7 -3 8 1 14 7 14 10 0 11 -7 2 -29z m-1630 -106 l211 -2 -5 -30
-4 -30 -339 0 -339 0 0 -30 0 -30 340 0 340 0 0 -41 0 -41 -70 4 -70 3 0 -272
0 -273 -405 0 -405 0 0 200 0 200 48 0 c26 0 42 -4 35 -8 -6 -4 18 -7 54 -7
59 0 67 -3 90 -29 14 -17 23 -37 20 -47 -3 -11 -1 -17 4 -13 25 15 -23 92 -60
96 -9 0 4 4 29 8 31 5 1 7 -92 8 l-138 2 0 165 0 165 198 2 c205 3 214 3 558
0z m254 -2 c0 -5 -4 -10 -10 -10 -5 0 -10 5 -10 10 0 6 5 10 10 10 6 0 10 -4
10 -10z m2440 0 c0 -5 -7 -10 -15 -10 -8 0 -15 5 -15 10 0 6 7 10 15 10 8 0
15 -4 15 -10z m-4188 -7 c-112 -2 -292 -2 -400 0 -108 1 -17 2 203 2 220 0
309 -1 197 -2z m251 0 c-7 -2 -21 -2 -30 0 -10 3 -4 5 12 5 17 0 24 -2 18 -5z
m1989 -10 c-8 -3 -5 -10 10 -23 l23 -18 -29 -12 c-16 -6 -31 -9 -33 -6 -3 2 5
7 16 11 27 8 27 21 -1 29 -19 5 -21 8 -8 16 8 5 20 9 25 9 6 0 4 -3 -3 -6z
m171 -38 c4 -16 4 -24 1 -17 -3 6 -14 12 -25 12 -10 0 -19 4 -19 10 0 5 7 7
15 4 8 -4 15 -1 15 5 0 6 -5 11 -11 11 -5 0 -7 5 -3 11 9 15 20 0 27 -36z m64
27 c-20 -22 -21 -29 -4 -35 6 -2 2 -2 -10 -1 -12 2 -24 -2 -26 -9 -3 -6 -5 4
-6 23 0 24 3 29 8 17 6 -17 8 -17 25 2 11 12 21 21 24 21 3 0 -2 -8 -11 -18z
m63 6 c-24 -10 -24 -10 -5 -18 l20 -9 -20 -1 c-17 -2 -16 -3 5 -10 24 -8 24
-8 3 -9 -37 -2 -38 -1 -34 22 3 24 18 37 41 36 8 0 4 -5 -10 -11z m2160 -8 c0
-11 -7 -20 -15 -20 -8 0 -15 9 -15 20 0 11 7 20 15 20 8 0 15 -9 15 -20z
m-2384 -12 c6 -21 7 -21 20 -3 10 14 14 15 14 4 0 -8 -4 -20 -9 -28 -7 -10
-12 -8 -25 10 -14 20 -18 22 -26 9 -11 -17 -13 -9 -4 14 9 22 21 20 30 -6z
m-2801 -28 c4 -6 -5 -7 -24 -4 -38 8 -59 -24 -42 -63 10 -21 16 -24 42 -19 19
3 28 2 24 -4 -11 -18 -64 -11 -75 9 -14 26 -13 64 2 79 14 14 64 16 73 2z m35
-45 c0 -30 -4 -55 -10 -55 -5 0 -10 25 -10 55 0 30 5 55 10 55 6 0 10 -25 10
-55z m627 43 c-2 -7 3 -18 12 -25 14 -11 14 -12 -1 -13 -12 0 -18 -8 -18 -24
0 -15 7 -26 18 -29 13 -4 12 -5 -4 -6 -18 -1 -23 6 -26 37 -5 43 0 72 14 72 5
0 8 -6 5 -12z m4686 -32 c-24 -21 -26 -26 -15 -50 8 -19 19 -26 39 -27 27 0
27 -1 6 -11 -55 -27 -101 61 -51 96 35 25 52 19 21 -8z m-5223 -26 c0 -31 -3
-36 -26 -38 -29 -2 -54 13 -54 34 0 21 28 42 55 40 22 -1 25 -6 25 -36z m50
30 c0 -5 -5 -10 -12 -10 -9 0 -9 -3 0 -12 18 -18 15 -48 -5 -48 -15 0 -15 2
-4 9 12 8 12 12 2 25 -7 9 -11 23 -7 31 6 17 26 21 26 5z m42 -7 c-10 -4 -10
-9 3 -23 19 -21 13 -40 -13 -40 -14 0 -13 2 2 13 17 12 17 14 2 20 -19 7 -21
33 -3 40 6 2 14 2 17 -1 3 -2 -1 -7 -8 -9z m86 5 c20 -20 14 -38 -15 -38 -29
0 -22 -15 12 -23 13 -3 10 -5 -11 -6 -43 -1 -58 33 -28 63 19 19 26 20 42 4z
m58 3 c11 9 18 9 26 1 9 -9 15 -8 26 0 20 17 41 -14 33 -50 -6 -27 -6 -27 -9
6 -4 42 -34 40 -43 -3 l-7 -30 -1 33 c-1 26 -5 33 -18 30 -10 -2 -21 -16 -24
-33 -6 -25 -7 -23 -7 15 0 25 2 39 5 32 4 -10 8 -10 19 -1z m164 -6 c15 -18 5
-35 -21 -35 -26 0 -24 -18 4 -23 19 -4 18 -4 -5 -6 -22 -1 -29 4 -34 24 -11
43 29 72 56 40z m56 6 c11 9 18 9 29 -1 17 -14 21 -70 5 -70 -5 0 -10 14 -10
31 0 41 -32 36 -41 -6 -6 -25 -7 -23 -7 15 0 25 2 39 5 32 4 -10 8 -10 19 -1z
m136 -8 c-10 -4 -10 -9 3 -23 17 -19 13 -40 -7 -40 -7 0 -7 5 1 14 9 10 8 15
-4 20 -18 7 -20 33 -2 39 6 2 14 2 17 -1 3 -2 -1 -7 -8 -9z m1852 -39 c31 -32
33 -53 5 -83 -27 -29 -80 -26 -94 7 -5 12 -13 22 -17 22 -5 0 -8 7 -8 16 0 8
5 12 10 9 6 -3 10 1 10 9 0 16 37 46 56 46 6 0 23 -12 38 -26z m2900 -165 c20
-12 33 -26 29 -32 -4 -7 0 -8 13 -3 15 6 16 5 7 -5 -9 -9 -18 -8 -38 5 -25 17
-26 17 -16 -1 33 -57 51 -67 122 -71 l69 -4 0 -59 0 -59 -112 -1 c-100 -1
-107 -2 -63 -11 28 -5 78 -6 113 -3 l62 6 0 -53 0 -53 -86 2 c-47 1 -88 3 -90
6 -2 2 34 14 81 27 47 13 85 24 85 26 0 2 -199 3 -442 3 -545 -1 -508 -2 -508
14 0 8 20 12 68 13 37 0 87 5 112 11 41 10 35 11 -67 12 l-113 1 0 100 0 100
28 0 c26 0 92 -33 92 -46 0 -4 -7 -1 -15 6 -23 19 -30 4 -11 -25 14 -21 24
-25 62 -25 37 0 45 3 40 15 -4 12 4 15 48 14 29 -1 63 4 76 11 13 7 35 16 49
21 24 7 23 7 -9 8 -23 1 -30 4 -22 10 7 4 12 14 10 22 -4 19 52 24 76 6 17
-12 17 -15 2 -29 -14 -15 -13 -17 9 -22 15 -4 25 -14 25 -24 0 -13 2 -14 9 -3
6 9 11 10 15 2 4 -6 4 -16 0 -23 -5 -7 -3 -8 5 -4 7 5 10 14 7 22 -3 9 4 19
18 26 21 9 23 13 13 30 -17 27 7 40 64 35 27 -2 57 2 70 9 35 19 73 17 113 -7z
m-2406 -89 c4 -120 1 -130 -48 -130 -22 0 -40 5 -40 10 0 6 14 10 30 10 l30 0
0 90 0 90 -65 0 c-38 0 -65 4 -65 10 0 7 29 10 78 8 l77 -3 3 -85z m2120 71
c-6 -10 -18 -17 -25 -14 -25 10 -12 33 19 33 15 0 16 -3 6 -19z m-5041 -38
c-3 -10 -5 -4 -5 12 0 17 2 24 5 18 2 -7 2 -21 0 -30z m2514 -16 c2 -23 2
-116 1 -205 l-4 -162 -129 0 -129 0 0 205 0 205 129 0 129 0 3 -43z m-1784 11
c-3 -8 -6 -5 -6 6 -1 11 2 17 5 13 3 -3 4 -12 1 -19z m130 -90 c-2 -13 -4 -5
-4 17 -1 22 1 32 4 23 2 -10 2 -28 0 -40z m0 -240 c-1 -40 -3 -10 -3 67 0 77
1 110 3 73 2 -37 2 -100 0 -140z m4178 72 c55 -10 91 -19 80 -20 -62 -6 -555
-4 -555 3 0 4 8 7 18 8 9 0 49 7 87 14 99 19 253 17 370 -5z m448 -59 c24 -1
27 -4 25 -31 l-2 -30 -478 0 -478 0 0 28 c0 16 2 31 4 33 3 3 801 3 929 0z
m-4626 -203 c-2 -18 -4 -4 -4 32 0 36 2 50 4 33 2 -18 2 -48 0 -65z m61 -86
c2 -7 -3 -12 -12 -12 -9 0 -16 7 -16 16 0 17 22 14 28 -4z m1182 3 c0 -8 -4
-15 -10 -15 -5 0 -13 -1 -17 -2 -3 -2 -7 5 -9 15 -1 11 4 17 17 17 10 0 19 -7
19 -15z m583 1 c6 -15 -19 -30 -34 -20 -5 3 -9 12 -9 20 0 18 36 18 43 0z
m1267 0 c0 -8 -5 -18 -10 -21 -13 -8 -42 14 -34 26 9 15 44 10 44 -5z m580 0
c0 -8 -4 -17 -8 -20 -13 -8 -35 11 -28 23 10 16 36 14 36 -3z m1170 -1 c0 -8
-7 -15 -15 -15 -8 0 -15 7 -15 15 0 8 7 15 15 15 8 0 15 -7 15 -15z m-4230
-34 c0 -5 -9 -11 -21 -14 -17 -5 -20 -12 -17 -53 2 -31 -1 -48 -9 -51 -10 -3
-13 11 -13 51 0 43 -3 56 -15 56 -8 0 -15 5 -15 10 0 6 20 10 45 10 25 0 45
-4 45 -9z m910 -1 c0 -5 -7 -10 -15 -10 -12 0 -15 -13 -15 -55 0 -42 -3 -55
-15 -55 -12 0 -15 13 -15 55 0 42 -3 55 -15 55 -8 0 -15 5 -15 10 0 6 20 10
45 10 25 0 45 -4 45 -10z m357 -5 c3 -9 -3 -25 -12 -35 -18 -20 -18 -20 13
-14 35 7 41 -2 15 -22 -17 -13 -17 -13 0 -14 9 0 17 -6 17 -14 0 -10 -15 -14
-55 -14 -43 0 -55 3 -60 17 -6 21 3 51 16 51 4 0 6 7 3 15 -8 20 13 45 38 45
10 0 21 -7 25 -15z m2197 -1 c32 -31 13 -74 -32 -74 -15 0 -26 -7 -29 -20 -11
-41 -23 -18 -23 45 l0 65 34 0 c19 0 42 -7 50 -16z m-3354 -9 c0 -12 13 -15
55 -15 l55 0 0 -45 c0 -25 -4 -45 -10 -45 -5 0 -10 16 -10 35 0 24 -5 35 -15
35 -10 0 -15 -11 -15 -35 0 -19 -4 -35 -10 -35 -5 0 -10 16 -10 35 0 28 -4 35
-20 35 -24 0 -28 -38 -5 -46 23 -9 18 -26 -7 -22 -18 2 -24 12 -29 42 -7 43
-2 76 12 76 5 0 9 -7 9 -15z m110 5 c0 -5 -4 -10 -10 -10 -5 0 -10 5 -10 10 0
6 5 10 10 10 6 0 10 -4 10 -10z m2200 0 c0 -5 -7 -10 -15 -10 -8 0 -15 5 -15
10 0 6 7 10 15 10 8 0 15 -4 15 -10z m-3033 -32 c-3 -8 -6 -5 -6 6 -1 11 2 17
5 13 3 -3 4 -12 1 -19z m683 -7 c14 -28 13 -31 -16 -31 -14 0 -23 -4 -19 -10
3 -5 12 -7 20 -3 8 3 15 0 15 -6 0 -18 -26 -24 -49 -11 -23 12 -28 49 -9 68
18 18 46 14 58 -7z m200 9 c0 -5 -5 -10 -12 -10 -6 0 -3 -9 7 -20 17 -19 17
-22 3 -36 -9 -9 -21 -13 -28 -9 -9 6 -9 9 1 15 10 7 10 11 0 24 -7 9 -11 23
-7 31 6 17 36 21 36 5z m714 -6 c14 -13 16 -13 16 -1 0 12 13 15 63 13 l62 -1
3 -44 c2 -32 0 -42 -10 -39 -7 3 -14 19 -16 36 -4 40 -22 32 -22 -9 0 -19 -5
-29 -15 -29 -11 0 -15 11 -15 36 0 21 -4 33 -10 29 -5 -3 -10 -19 -10 -36 0
-19 -5 -29 -15 -29 -8 0 -15 7 -15 16 0 14 -1 14 -16 0 -30 -30 -74 -13 -74
29 0 42 44 59 74 29z m1526 -7 c7 -17 9 -18 9 -5 1 25 51 36 66 14 11 -15 13
-15 19 -1 10 26 26 16 26 -16 0 -38 24 -35 28 4 6 47 32 33 32 -17 l0 -44 -40
0 c-30 -1 -40 4 -45 19 -4 10 -14 19 -23 19 -14 0 -14 -2 -3 -9 7 -5 10 -14 7
-20 -10 -16 -42 -14 -60 5 -15 14 -16 14 -16 0 0 -9 -7 -16 -15 -16 -11 0 -15
11 -15 36 0 21 -4 33 -10 29 -5 -3 -10 -19 -10 -36 0 -19 -5 -29 -15 -29 -11
0 -15 11 -15 43 0 43 1 44 35 45 28 1 38 -3 45 -21z m240 14 c0 -5 -7 -11 -15
-15 -9 -3 -15 -18 -15 -36 0 -16 -4 -30 -10 -30 -5 0 -10 20 -10 45 0 41 2 45
25 45 14 0 25 -4 25 -9z m804 -7 c9 -8 16 -20 16 -26 0 -15 -30 -48 -43 -48
-15 0 -47 31 -47 46 0 17 28 44 45 44 7 0 21 -7 29 -16z m94 -31 c2 -26 -1
-43 -7 -43 -6 0 -11 16 -11 36 0 45 -24 42 -28 -4 -5 -48 -22 -38 -22 12 0 44
0 44 33 43 30 -2 32 -4 35 -44z m92 2 c0 -25 -6 -48 -15 -55 -16 -14 -56 -4
-54 13 1 7 -1 20 -5 29 -13 28 10 57 44 56 28 -1 30 -3 30 -43z m-4353 -17
c-3 -8 -6 -5 -6 6 -1 11 2 17 5 13 3 -3 4 -12 1 -19z m0 -80 c-2 -13 -4 -3 -4
22 0 25 2 35 4 23 2 -13 2 -33 0 -45z m0 -50 c-3 -8 -6 -5 -6 6 -1 11 2 17 5
13 3 -3 4 -12 1 -19z m0 -135 c-2 -21 -4 -4 -4 37 0 41 2 58 4 38 2 -21 2 -55
0 -75z m1852 64 c10 3 21 1 24 -4 3 -5 -8 -10 -24 -11 -22 -2 -29 2 -28 15 0
10 3 13 5 7 3 -7 13 -10 23 -7z m98 -9 c-3 -8 -6 -5 -6 6 -1 11 2 17 5 13 3
-3 4 -12 1 -19z m-37 2 c0 -5 -4 -10 -10 -10 -5 0 -10 5 -10 10 0 6 5 10 10
10 6 0 10 -4 10 -10z m2164 -26 c10 -27 7 -34 -16 -35 l-23 -2 23 -4 c33 -6
27 -23 -9 -23 -26 0 -30 3 -27 22 2 14 13 25 28 29 l25 7 -27 1 c-34 1 -38 21
-4 21 13 0 27 -7 30 -16z m226 1 c15 -18 6 -30 -25 -38 -15 -3 -13 -5 8 -6 37
-1 25 -21 -14 -21 -42 0 -37 42 6 53 15 4 14 5 -7 6 -16 0 -28 6 -28 11 0 16
46 12 60 -5z m-3202 -142 l3 -113 -120 0 c-66 0 -128 -3 -138 -6 -12 -5 -15
-4 -8 4 6 5 17 12 26 14 13 2 8 16 -27 68 l-44 65 0 -68 0 -67 -30 0 -30 0 0
99 c0 70 4 101 13 104 6 3 -1 5 -18 5 -16 0 -24 -2 -17 -5 20 -8 14 -43 -8
-43 -18 0 -20 -7 -20 -80 0 -79 0 -80 -25 -80 -25 0 -25 1 -25 80 0 73 -2 80
-20 80 -13 0 -20 7 -20 19 0 15 8 21 38 24 l37 4 -41 1 c-35 2 -43 -2 -52 -23
-8 -17 -20 -25 -37 -25 -14 0 -25 -4 -25 -10 0 -5 12 -10 26 -10 22 0 25 -2
14 -15 -7 -8 -19 -15 -26 -15 -9 0 -14 -12 -14 -35 0 -35 0 -35 45 -35 34 0
47 -5 55 -20 10 -18 8 -20 -20 -20 -24 0 -30 -4 -31 -22 -1 -17 -2 -19 -6 -5
-4 15 -19 17 -129 17 l-124 0 0 115 0 115 398 -2 397 -3 3 -112z m612 92 c0
-14 -4 -25 -9 -25 -4 0 -6 11 -3 25 2 14 6 25 8 25 2 0 4 -11 4 -25z m-549
-13 c0 -14 2 -13 9 3 8 19 9 19 9 -2 1 -29 -35 -41 -58 -18 -15 15 -15 17 3
30 22 16 36 11 37 -13z m197 -59 c-10 -2 -28 -2 -40 0 -13 2 -5 4 17 4 22 1
32 -1 23 -4z m2200 0 c-10 -2 -26 -2 -35 0 -10 3 -2 5 17 5 19 0 27 -2 18 -5z
m-2188 -43 c0 -5 -5 -10 -11 -10 -5 0 -7 5 -4 10 3 6 8 10 11 10 2 0 4 -4 4
-10z m-1373 -307 c-1 -54 -3 -10 -3 97 0 107 2 151 3 98 2 -54 2 -142 0 -195z
m1371 231 c2 -34 -1 -44 -10 -38 -10 6 -11 4 0 -7 21 -22 12 -96 -11 -82 -5 3
-8 2 -5 -3 7 -12 -27 -76 -39 -72 -4 2 -8 -4 -9 -12 -2 -31 -4 -37 -25 -58
-11 -13 -25 -19 -32 -15 -7 4 -6 0 2 -10 7 -9 9 -17 4 -17 -5 0 -9 -10 -10
-22 -2 -23 -2 -23 17 2 11 14 20 29 20 33 0 4 9 3 20 -3 16 -9 18 -8 14 5 -3
8 -10 12 -15 9 -16 -9 -10 2 36 78 l46 73 -3 -153 -3 -152 148 0 c109 0 146
-3 141 -12 -5 -7 -3 -8 7 -2 8 5 31 10 51 11 27 1 35 -2 32 -12 -3 -8 -13 -11
-22 -8 -9 4 -14 3 -10 -2 4 -4 -4 -16 -17 -27 -14 -11 -25 -25 -25 -32 0 -6
-9 -18 -20 -26 -23 -17 -27 -45 -5 -36 8 3 15 1 15 -3 0 -5 -7 -11 -15 -15 -8
-3 -15 -1 -15 4 0 6 -7 10 -15 10 -8 0 -15 -5 -15 -11 0 -5 5 -7 12 -3 6 4 8
3 5 -2 -3 -6 -25 -11 -49 -12 -53 -3 -81 -11 -90 -26 -5 -8 -8 -7 -8 2 0 8 -8
10 -25 6 -15 -4 -25 -2 -25 5 0 6 -8 19 -17 29 -10 10 -23 27 -30 38 -6 10
-16 18 -22 16 -6 -1 -11 4 -11 11 0 8 -9 22 -21 33 -14 13 -18 25 -14 44 4 17
3 21 -4 11 -9 -14 -16 -9 -55 44 -15 20 -15 19 -16 -5 0 -18 -3 -21 -9 -11 -5
7 -13 11 -19 7 -7 -4 -10 19 -9 64 0 53 3 67 13 60 8 -8 13 -6 18 5 3 9 10 13
16 10 10 -6 12 8 15 118 1 27 7 52 14 57 10 5 10 9 2 15 -8 4 0 18 24 40 19
19 35 38 34 42 -3 20 2 34 11 28 6 -3 13 1 16 9 9 24 11 20 12 -30z m3242 -54
c0 -40 -4 -70 -10 -70 -6 0 -10 30 -10 70 0 40 4 70 10 70 6 0 10 -30 10 -70z
m-2960 -185 l0 -195 -135 0 -135 0 0 195 0 195 135 0 135 0 0 -195z m2100 105
c0 -56 -3 -70 -15 -70 -12 0 -15 14 -15 70 0 56 3 70 15 70 12 0 15 -14 15
-70z m-2597 -1 c39 -13 43 -22 27 -63 -10 -29 -35 -34 -44 -11 -4 12 -26 14
-128 12 -68 -2 -129 -2 -135 1 -14 4 -18 64 -5 76 11 12 241 0 285 -15z m-313
-44 l0 -45 -139 0 c-77 0 -142 4 -145 9 -4 5 -2 20 3 33 10 23 10 23 10 -4 1
-21 6 -28 20 -28 11 0 22 6 25 13 5 10 7 10 12 0 3 -8 24 -13 47 -13 31 0 38
3 27 10 -19 13 -8 13 25 0 17 -7 24 -7 20 0 -3 6 -1 10 4 10 6 0 11 -4 11 -10
0 -5 15 -9 33 -7 29 2 32 6 35 40 4 51 12 46 12 -8z m-421 -3 c68 -2 118 -7
113 -11 -9 -5 -89 -6 -274 -2 -33 1 -38 4 -38 25 l0 25 38 -16 c25 -11 78 -18
161 -21z m3539 -10 c2 -7 -3 -12 -12 -12 -9 0 -16 7 -16 16 0 17 22 14 28 -4z
m-2783 -86 c0 -25 -5 -50 -12 -57 -15 -15 -20 -3 -25 59 -3 37 -1 42 17 42 17
0 20 -6 20 -44z m-855 17 c0 -15 -2 -16 -10 -3 -9 13 -11 13 -20 0 -8 -13 -10
-12 -10 3 0 10 8 17 20 17 12 0 20 -7 20 -17z m50 0 c0 -15 -2 -16 -10 -3 -9
13 -11 13 -20 0 -8 -13 -10 -12 -10 3 0 10 8 17 20 17 12 0 20 -7 20 -17z
m150 -28 c0 -38 -3 -45 -20 -45 -17 0 -20 7 -20 45 0 38 3 45 20 45 17 0 20
-7 20 -45z m48 -3 c3 -37 1 -42 -17 -42 -18 0 -21 6 -21 46 0 38 3 45 18 42
12 -2 18 -15 20 -46z m200 0 c3 -35 0 -42 -15 -42 -14 0 -19 8 -21 35 -2 20 0
40 4 46 13 21 29 1 32 -39z m58 10 c-2 -15 -5 -38 -5 -52 -1 -18 -4 -21 -10
-11 -5 7 -13 11 -18 8 -6 -4 -11 13 -11 38 -2 34 2 44 15 47 27 7 34 -1 29
-30z m-555 -24 l2 -23 4 23 c6 29 43 31 43 2 0 -15 7 -20 25 -20 17 0 25 -5
25 -17 0 -15 -2 -16 -10 -3 -8 12 -11 13 -19 1 -7 -11 -9 -11 -14 0 -4 10 -6
9 -6 -3 -1 -13 7 -18 24 -18 15 0 25 -6 25 -14 0 -9 -9 -14 -20 -13 -11 1 -20
6 -20 12 0 6 -3 7 -8 0 -4 -5 -15 -11 -26 -13 -14 -3 -18 1 -14 16 3 11 2 26
-3 33 -6 10 -9 11 -9 2 0 -7 -9 -13 -20 -13 -16 0 -20 7 -20 35 0 28 4 35 20
35 14 0 20 -7 21 -22z m99 7 c0 -8 -5 -15 -11 -15 -5 0 -7 5 -4 10 3 6 2 10
-4 10 -5 0 -12 -6 -14 -12 -3 -8 -6 -6 -6 5 -1 11 6 17 19 17 11 0 20 -7 20
-15z m50 11 c0 -2 -9 -6 -20 -9 -11 -3 -20 -1 -20 4 0 5 9 9 20 9 11 0 20 -2
20 -4z m200 -16 c0 -15 7 -20 25 -20 16 0 25 -6 25 -15 0 -18 -40 -20 -41 -2
0 10 -2 10 -6 0 -7 -18 -43 -16 -43 2 0 8 8 16 18 16 16 1 16 2 0 6 -25 6 -23
33 2 33 13 0 20 -7 20 -20z m43 13 c-7 -2 -19 -2 -25 0 -7 3 -2 5 12 5 14 0
19 -2 13 -5z m54 1 c-3 -3 -12 -4 -19 -1 -8 3 -5 6 6 6 11 1 17 -2 13 -5z
m146 -1 c-7 -2 -19 -2 -25 0 -7 3 -2 5 12 5 14 0 19 -2 13 -5z m104 1 c-3 -3
-12 -4 -19 -1 -8 3 -5 6 6 6 11 1 17 -2 13 -5z m-554 -41 c-7 -2 -19 -2 -25 0
-7 3 -2 5 12 5 14 0 19 -2 13 -5z m50 0 c-7 -2 -19 -2 -25 0 -7 3 -2 5 12 5
14 0 19 -2 13 -5z m250 0 c-7 -2 -19 -2 -25 0 -7 3 -2 5 12 5 14 0 19 -2 13
-5z m210 -9 c-5 -13 -7 -13 -14 -2 -7 11 -9 11 -9 -1 0 -11 -3 -11 -15 -1 -12
10 -15 10 -16 -1 0 -10 -2 -10 -5 -2 -3 7 -12 9 -20 6 -8 -3 -14 0 -14 6 0 7
20 11 50 11 41 0 48 -3 43 -16z m44 10 c-3 -3 -12 -4 -19 -1 -8 3 -5 6 6 6 11
1 17 -2 13 -5z m110 -14 c-4 -17 0 -20 24 -20 33 0 39 -15 9 -23 -11 -3 -20 0
-20 6 0 9 -2 9 -8 1 -9 -14 -89 -17 -97 -3 -8 12 -52 12 -59 0 -9 -14 -96 -12
-96 2 0 7 -4 6 -10 -3 -5 -8 -10 -10 -10 -5 0 6 -9 11 -20 11 -11 0 -20 -4
-20 -8 0 -13 -40 -9 -41 5 0 10 -2 10 -6 0 -2 -7 -13 -13 -24 -13 -10 0 -19 6
-20 13 0 10 -2 10 -6 0 -7 -18 -43 -16 -43 2 0 13 28 15 188 16 103 0 181 3
175 6 -7 2 -13 11 -13 19 0 10 14 14 51 14 46 0 51 -2 46 -20z m40 14 c-3 -3
-12 -4 -19 -1 -8 3 -5 6 6 6 11 1 17 -2 13 -5z m-1059 -37 c8 -10 6 -16 -9
-25 -17 -11 -19 -9 -19 13 0 27 12 32 28 12z m4782 -12 c0 -22 -2 -24 -19 -13
-15 9 -17 15 -9 25 16 20 28 15 28 -12z m-4577 8 c-7 -2 -19 -2 -25 0 -7 3 -2
5 12 5 14 0 19 -2 13 -5z m157 -7 c0 -9 -9 -14 -20 -13 -11 1 -20 7 -20 14 0
7 9 13 20 13 11 0 20 -6 20 -14z m50 1 c0 -7 -9 -13 -20 -13 -11 0 -20 6 -20
13 0 7 9 13 20 13 11 0 20 -6 20 -13z m50 -4 c0 -15 -2 -16 -10 -3 -9 13 -11
13 -20 0 -8 -13 -10 -12 -10 3 0 10 8 17 20 17 12 0 20 -7 20 -17z m43 10 c-7
-2 -19 -2 -25 0 -7 3 -2 5 12 5 14 0 19 -2 13 -5z m50 0 c-7 -2 -19 -2 -25 0
-7 3 -2 5 12 5 14 0 19 -2 13 -5z m1574 -9 c-3 -4 4 -15 16 -25 16 -14 17 -17
5 -13 -11 4 -18 1 -19 -7 -1 -8 -4 -3 -8 11 -8 25 -5 40 6 40 4 0 4 -3 0 -6z
m133 -20 c0 -10 -10 -14 -30 -12 -34 3 -38 12 -13 26 21 12 43 5 43 -14z
m-2323 -226 c-1 -46 -3 -11 -3 77 0 88 2 125 3 83 2 -42 2 -114 0 -160z m266
215 c-7 -2 -19 -2 -25 0 -7 3 -2 5 12 5 14 0 19 -2 13 -5z m50 0 c-7 -2 -19
-2 -25 0 -7 3 -2 5 12 5 14 0 19 -2 13 -5z m50 0 c-7 -2 -19 -2 -25 0 -7 3 -2
5 12 5 14 0 19 -2 13 -5z m57 -8 c0 -8 -5 -15 -11 -15 -5 0 -7 5 -4 10 3 6 2
10 -4 10 -5 0 -12 -6 -14 -12 -3 -8 -6 -6 -6 5 -1 11 6 17 19 17 11 0 20 -7
20 -15z m50 0 c0 -8 -5 -15 -11 -15 -5 0 -7 5 -4 10 3 6 2 10 -4 10 -5 0 -12
-6 -14 -12 -3 -8 -6 -6 -6 5 -1 11 6 17 19 17 11 0 20 -7 20 -15z m50 0 c0 -8
-5 -15 -11 -15 -5 0 -7 5 -4 10 3 6 2 10 -4 10 -5 0 -12 -6 -14 -12 -3 -8 -6
-6 -6 5 -1 11 6 17 19 17 11 0 20 -7 20 -15z m43 8 c-7 -2 -19 -2 -25 0 -7 3
-2 5 12 5 14 0 19 -2 13 -5z m50 0 c-7 -2 -19 -2 -25 0 -7 3 -2 5 12 5 14 0
19 -2 13 -5z m50 0 c-7 -2 -19 -2 -25 0 -7 3 -2 5 12 5 14 0 19 -2 13 -5z
m235 0 c-16 -2 -28 -9 -28 -14 0 -14 -40 -11 -41 4 0 10 -2 10 -6 0 -2 -7 -13
-13 -24 -13 -10 0 -19 6 -20 13 0 10 -2 10 -6 0 -2 -7 -13 -13 -24 -13 -10 0
-19 6 -20 13 0 10 -2 10 -6 0 -7 -18 -43 -16 -43 2 0 13 20 15 123 14 67 -1
110 -4 95 -6z m65 0 c-7 -2 -19 -2 -25 0 -7 3 -2 5 12 5 14 0 19 -2 13 -5z
m53 0 c-15 -4 -16 -7 -5 -14 11 -7 11 -9 -3 -9 -10 0 -18 7 -18 15 0 9 9 15
23 14 19 -1 19 -2 3 -6z m108 -8 c-7 -17 -34 -21 -34 -5 0 6 -10 10 -22 10
-19 0 -20 -2 -8 -10 13 -8 12 -10 -2 -10 -10 0 -18 7 -18 15 0 11 12 15 45 15
35 0 43 -3 39 -15z m701 -34 c-3 -3 -13 -6 -21 -7 -32 -5 -46 -15 -41 -29 4
-9 1 -12 -8 -9 -20 8 2 42 30 46 32 5 45 5 40 -1z m503 -11 c-7 -11 -16 -20
-20 -20 -11 0 -5 23 7 32 19 14 25 8 13 -12z m-624 -48 c3 -5 -1 -9 -9 -9 -8
0 -12 4 -9 9 3 4 7 8 9 8 2 0 6 -4 9 -8z m41 -1 c3 -5 2 -12 -3 -15 -5 -3 -9
1 -9 9 0 17 3 19 12 6z m1456 -38 c2 2 12 -5 22 -15 27 -29 -1 -21 -31 9 -15
15 -20 21 -11 15 9 -7 18 -10 20 -9z m-1577 -91 c3 -5 -1 -9 -9 -9 -8 0 -12 4
-9 9 3 4 7 8 9 8 2 0 6 -4 9 -8z m-94 -207 c11 -13 8 -15 -18 -15 -24 0 -30 4
-26 15 4 8 12 15 19 15 7 0 18 -7 25 -15z m1850 -1 c0 -8 -10 -14 -25 -14 -16
0 -23 5 -19 13 6 18 44 19 44 1z m-2455 -4 c3 -5 1 -10 -4 -10 -6 0 -11 5 -11
10 0 6 2 10 4 10 3 0 8 -4 11 -10z m1865 0 c0 -5 -4 -10 -10 -10 -5 0 -10 5
-10 10 0 6 5 10 10 10 6 0 10 -4 10 -10z m1170 0 c0 -5 -5 -10 -11 -10 -5 0
-7 5 -4 10 3 6 8 10 11 10 2 0 4 -4 4 -10z"/>
<path d="M4296 3893 c-9 -26 -16 -50 -16 -55 0 -4 18 -8 41 -8 37 0 40 2 33
22 -11 35 -34 88 -38 88 -2 0 -11 -21 -20 -47z"/>
<path d="M2512 3868 c-22 -22 -15 -76 13 -94 23 -15 27 -15 50 0 18 12 25 25
25 49 0 40 -15 57 -50 57 -14 0 -31 -5 -38 -12z"/>
<path d="M3052 3868 c-22 -22 -15 -76 13 -94 23 -15 27 -15 50 0 27 18 33 53
15 87 -12 22 -59 26 -78 7z"/>
<path d="M3457 3874 c-19 -20 -5 -34 34 -34 33 0 40 3 37 18 -3 17 -57 30 -71
16z"/>
<path d="M3972 3868 c-20 -20 -13 -28 26 -28 45 0 56 8 41 27 -14 16 -51 17
-67 1z"/>
<path d="M5087 3874 c-19 -20 -5 -34 34 -34 33 0 40 3 37 18 -3 17 -57 30 -71
16z"/>
<path d="M3931 3153 c7 -12 15 -20 18 -17 3 2 -3 12 -13 22 -17 16 -18 16 -5
-5z"/>
<path d="M4145 3149 c-4 -6 -5 -12 -2 -15 2 -3 7 2 10 11 7 17 1 20 -8 4z"/>
<path d="M3906 3133 c-4 -10 -4 -14 0 -10 4 4 14 1 22 -6 13 -10 14 -9 3 11
-14 27 -17 27 -25 5z"/>
<path d="M4350 2660 l0 -280 -50 0 c-43 0 -50 -3 -50 -20 0 -19 7 -20 125 -20
118 0 125 1 125 20 0 17 -7 20 -50 20 l-50 0 0 188 0 188 73 78 73 77 169 -1
c272 -2 275 -2 275 15 0 13 -42 15 -320 15 l-320 0 0 -280z m130 242 c0 -4
-18 -26 -40 -47 l-40 -39 0 47 0 47 40 0 c22 0 40 -4 40 -8z"/>
<path d="M3610 1910 c0 -5 5 -10 11 -10 5 0 7 5 4 10 -3 6 -8 10 -11 10 -2 0
-4 -4 -4 -10z"/>
<path d="M3576 1878 c3 -5 10 -6 15 -3 13 9 11 12 -6 12 -8 0 -12 -4 -9 -9z"/>
<path d="M4169 1723 c0 -5 -2 -16 -4 -25 -3 -15 4 -18 36 -18 35 0 39 3 39 25
0 22 -4 25 -35 25 -19 0 -35 -3 -36 -7z"/>
<path d="M5000 1705 c0 -22 4 -25 40 -25 36 0 40 3 40 25 0 23 -4 25 -40 25
-36 0 -40 -2 -40 -25z"/>
<path d="M4885 1580 c-3 -5 -1 -10 4 -10 6 0 11 5 11 10 0 6 -2 10 -4 10 -3 0
-8 -4 -11 -10z"/>
<path d="M4945 1580 c-3 -5 -1 -10 4 -10 6 0 11 5 11 10 0 6 -2 10 -4 10 -3 0
-8 -4 -11 -10z"/>
<path d="M4570 1550 c0 -5 5 -10 11 -10 5 0 7 5 4 10 -3 6 -8 10 -11 10 -2 0
-4 -4 -4 -10z"/>
<path d="M4320 1540 c0 -5 5 -10 11 -10 5 0 7 5 4 10 -3 6 -8 10 -11 10 -2 0
-4 -4 -4 -10z"/>
<path d="M4350 1540 c0 -5 5 -10 11 -10 5 0 7 5 4 10 -3 6 -8 10 -11 10 -2 0
-4 -4 -4 -10z"/>
<path d="M4635 1540 c-3 -5 -1 -10 4 -10 6 0 11 5 11 10 0 6 -2 10 -4 10 -3 0
-8 -4 -11 -10z"/>
<path d="M4850 1540 c0 -5 5 -10 11 -10 5 0 7 5 4 10 -3 6 -8 10 -11 10 -2 0
-4 -4 -4 -10z"/>
<path d="M4885 1540 c3 -5 8 -10 11 -10 2 0 4 5 4 10 0 6 -5 10 -11 10 -5 0
-7 -4 -4 -10z"/>
<path d="M4945 1540 c-3 -5 -1 -10 4 -10 6 0 11 5 11 10 0 6 -2 10 -4 10 -3 0
-8 -4 -11 -10z"/>
<path d="M4445 1510 c-3 -5 -1 -10 4 -10 6 0 11 5 11 10 0 6 -2 10 -4 10 -3 0
-8 -4 -11 -10z"/>
<path d="M4570 1510 c0 -5 5 -10 11 -10 5 0 7 5 4 10 -3 6 -8 10 -11 10 -2 0
-4 -4 -4 -10z"/>
<path d="M4851 1464 c0 -11 3 -14 6 -6 3 7 2 16 -1 19 -3 4 -6 -2 -5 -13z"/>
<path d="M4975 1470 c3 -5 8 -10 11 -10 2 0 4 5 4 10 0 6 -5 10 -11 10 -5 0
-7 -4 -4 -10z"/>
<path d="M5071 1464 c0 -11 3 -14 6 -6 3 7 2 16 -1 19 -3 4 -6 -2 -5 -13z"/>
<path d="M4261 1384 c0 -11 3 -14 6 -6 3 7 2 16 -1 19 -3 4 -6 -2 -5 -13z"/>
<path d="M4665 1390 c3 -5 8 -10 11 -10 2 0 4 5 4 10 0 6 -5 10 -11 10 -5 0
-7 -4 -4 -10z"/>
<path d="M5071 1384 c0 -11 3 -14 6 -6 3 7 2 16 -1 19 -3 4 -6 -2 -5 -13z"/>
<path d="M5100 1345 c0 -4 23 -45 50 -92 28 -47 47 -90 43 -95 -3 -7 -1 -8 5
-4 11 7 17 -7 12 -29 -1 -5 2 -7 6 -3 4 4 13 0 21 -10 14 -16 14 -16 8 3 -4
11 -8 26 -8 33 0 6 -5 12 -11 12 -6 0 -2 8 9 17 20 15 20 15 -3 10 -30 -7 -53
28 -47 68 4 21 3 26 -4 15 -5 -8 -7 -18 -4 -24 3 -5 1 -6 -5 -2 -7 4 -12 14
-12 22 0 8 -4 14 -9 14 -5 0 -14 14 -21 30 -12 28 -30 49 -30 35z"/>
<path d="M5157 1339 c7 -7 15 -10 18 -7 3 3 -2 9 -12 12 -14 6 -15 5 -6 -5z"/>
<path d="M4481 1314 c0 -11 3 -14 6 -6 3 7 2 16 -1 19 -3 4 -6 -2 -5 -13z"/>
<path d="M4630 1321 c0 -6 5 -13 10 -16 6 -3 10 1 10 9 0 9 -4 16 -10 16 -5 0
-10 -4 -10 -9z"/>
<path d="M4660 1321 c0 -6 5 -13 10 -16 6 -3 10 1 10 9 0 9 -4 16 -10 16 -5 0
-10 -4 -10 -9z"/>
<path d="M4731 1314 c0 -11 3 -14 6 -6 3 7 2 16 -1 19 -3 4 -6 -2 -5 -13z"/>
<path d="M5071 1314 c0 -11 3 -14 6 -6 3 7 2 16 -1 19 -3 4 -6 -2 -5 -13z"/>
<path d="M4261 1274 c0 -11 3 -14 6 -6 3 7 2 16 -1 19 -3 4 -6 -2 -5 -13z"/>
<path d="M4451 1274 c0 -11 3 -14 6 -6 3 7 2 16 -1 19 -3 4 -6 -2 -5 -13z"/>
<path d="M4481 1274 c0 -11 3 -14 6 -6 3 7 2 16 -1 19 -3 4 -6 -2 -5 -13z"/>
<path d="M4571 1274 c0 -11 3 -14 6 -6 3 7 2 16 -1 19 -3 4 -6 -2 -5 -13z"/>
<path d="M4761 1274 c0 -11 3 -14 6 -6 3 7 2 16 -1 19 -3 4 -6 -2 -5 -13z"/>
<path d="M4885 1280 c3 -5 8 -10 11 -10 2 0 4 5 4 10 0 6 -5 10 -11 10 -5 0
-7 -4 -4 -10z"/>
<path d="M4981 1274 c0 -11 3 -14 6 -6 3 7 2 16 -1 19 -3 4 -6 -2 -5 -13z"/>
<path d="M4481 1234 c0 -11 3 -14 6 -6 3 7 2 16 -1 19 -3 4 -6 -2 -5 -13z"/>
<path d="M4511 1234 c0 -11 3 -14 6 -6 3 7 2 16 -1 19 -3 4 -6 -2 -5 -13z"/>
<path d="M4761 1234 c0 -11 3 -14 6 -6 3 7 2 16 -1 19 -3 4 -6 -2 -5 -13z"/>
<path d="M4981 1234 c0 -11 3 -14 6 -6 3 7 2 16 -1 19 -3 4 -6 -2 -5 -13z"/>
<path d="M4445 1230 c-3 -5 -1 -10 4 -10 6 0 11 5 11 10 0 6 -2 10 -4 10 -3 0
-8 -4 -11 -10z"/>
<path d="M4030 1138 c-10 -20 -9 -21 2 -6 13 15 15 15 26 0 10 -14 11 -13 2 6
-6 12 -13 22 -15 22 -2 0 -9 -10 -15 -22z"/>
<path d="M4117 1127 l-17 -32 20 24 c17 20 26 41 18 41 -2 0 -11 -15 -21 -33z"/>
<path d="M4511 1084 c0 -11 3 -14 6 -6 3 7 2 16 -1 19 -3 4 -6 -2 -5 -13z"/>
<path d="M4821 1084 c0 -11 3 -14 6 -6 3 7 2 16 -1 19 -3 4 -6 -2 -5 -13z"/>
<path d="M4010 1055 c0 -5 9 -23 19 -39 l19 -29 16 31 c22 42 20 53 -3 18
l-19 -29 -16 29 c-8 16 -15 25 -16 19z"/>
<path d="M4231 1044 c0 -11 3 -14 6 -6 3 7 2 16 -1 19 -3 4 -6 -2 -5 -13z"/>
<path d="M4571 1044 c0 -11 3 -14 6 -6 3 7 2 16 -1 19 -3 4 -6 -2 -5 -13z"/>
<path d="M5071 1044 c0 -11 3 -14 6 -6 3 7 2 16 -1 19 -3 4 -6 -2 -5 -13z"/>
<path d="M6516 3452 c-2 -4 4 -8 14 -8 10 0 16 4 14 8 -3 4 -9 8 -14 8 -5 0
-11 -4 -14 -8z"/>
<path d="M6510 642 c0 -17 21 -25 31 -13 5 6 6 9 3 6 -4 -3 -13 0 -21 6 -9 8
-13 8 -13 1z"/>
<path d="M3555 3230 c-3 -5 -2 -10 4 -10 5 0 13 5 16 10 3 6 2 10 -4 10 -5 0
-13 -4 -16 -10z"/>
<path d="M4427 3273 c-15 -14 -7 -43 12 -43 26 0 36 17 21 35 -14 16 -23 19
-33 8z"/>
<path d="M4695 3231 c-8 -15 3 -31 21 -31 9 0 14 7 12 17 -4 20 -24 28 -33 14z"/>
<path d="M2018 3233 c7 -3 16 -2 19 1 4 3 -2 6 -13 5 -11 0 -14 -3 -6 -6z"/>
<path d="M3451 3230 c-16 -9 -6 -30 15 -30 15 0 20 25 6 34 -4 2 -14 1 -21 -4z"/>
<path d="M5687 3234 c-14 -15 -6 -34 14 -34 14 0 19 5 17 17 -3 18 -20 27 -31
17z"/>
<path d="M5785 3231 c-8 -15 3 -31 21 -31 9 0 14 7 12 17 -4 20 -24 28 -33 14z"/>
<path d="M5887 3234 c-14 -15 -6 -34 14 -34 14 0 19 5 17 17 -3 18 -20 27 -31
17z"/>
<path d="M1860 2885 l0 -55 105 0 105 0 0 55 0 55 -105 0 -105 0 0 -55z"/>
<path d="M2126 2863 c-6 -14 -5 -15 5 -6 7 7 10 15 7 18 -3 3 -9 -2 -12 -12z"/>
<path d="M2114 2831 c-2 -2 -4 -112 -4 -243 l0 -238 30 0 30 0 0 175 0 175 51
0 c45 0 49 -2 35 -15 -27 -28 10 -69 40 -44 12 9 14 3 14 -35 0 -46 0 -46 -35
-46 -33 0 -35 -2 -35 -35 l0 -35 71 0 70 0 -1 68 c-1 37 -1 100 -1 140 l1 72
100 0 100 0 0 33 0 32 -231 0 c-127 0 -233 -2 -235 -4z m196 -147 c0 -14 -3
-14 -15 -4 -8 7 -15 14 -15 16 0 2 7 4 15 4 8 0 15 -7 15 -16z"/>
<path d="M1874 2648 l-19 -23 23 19 c21 18 27 26 19 26 -2 0 -12 -10 -23 -22z"/>
<path d="M2270 2610 c-8 -5 -12 -11 -9 -14 2 -3 11 -1 19 4 8 5 12 11 9 14 -2
3 -11 1 -19 -4z"/>
<path d="M1860 2581 c0 -5 7 -14 14 -21 11 -8 12 -18 6 -36 -11 -29 -10 -29
37 -4 21 11 32 20 25 20 -7 0 -23 -5 -34 -11 -18 -10 -20 -9 -15 5 4 10 -1 24
-13 36 -11 11 -20 16 -20 11z"/>
<path d="M2046 2555 c-11 -8 -29 -16 -40 -16 -16 -1 -17 -2 -4 -6 16 -4 78 22
78 32 0 9 -15 4 -34 -10z"/>
<path d="M2233 2395 c-6 -14 -7 -23 -2 -19 5 3 9 -2 9 -10 0 -14 23 -16 170
-15 l170 1 0 34 0 34 -167 0 -168 0 -12 -25z"/>
<path d="M1946 2377 c8 -22 34 -30 34 -10 0 9 -3 13 -7 10 -3 -4 -12 -2 -20 5
-11 8 -12 7 -7 -5z"/>
<path d="M1993 2375 c0 -8 4 -12 9 -9 5 3 6 10 3 15 -9 13 -12 11 -12 -6z"/>
<path d="M674 2905 c-4 -9 -2 -21 4 -27 15 -15 44 -1 40 19 -4 23 -36 29 -44
8z"/>
<path d="M870 2910 c0 -5 7 -7 15 -4 8 4 15 8 15 10 0 2 -7 4 -15 4 -8 0 -15
-4 -15 -10z"/>
<path d="M1090 2910 c0 -5 4 -10 9 -10 6 0 13 5 16 10 3 6 -1 10 -9 10 -9 0
-16 -4 -16 -10z"/>
<path d="M5705 2690 c-3 -5 -2 -10 4 -10 5 0 13 5 16 10 3 6 2 10 -4 10 -5 0
-13 -4 -16 -10z"/>
<path d="M5830 2690 c0 -5 5 -10 10 -10 6 0 10 5 10 10 0 6 -4 10 -10 10 -5 0
-10 -4 -10 -10z"/>
<path d="M5710 2630 c0 -5 4 -10 9 -10 6 0 13 5 16 10 3 6 -1 10 -9 10 -9 0
-16 -4 -16 -10z"/>
<path d="M5645 2475 c64 -18 174 -18 245 0 53 13 49 13 -120 13 -166 1 -173 0
-125 -13z"/>
<path d="M3123 2663 c9 -2 25 -2 35 0 9 3 1 5 -18 5 -19 0 -27 -2 -17 -5z"/>
<path d="M3046 2635 c-29 -27 -34 -66 -11 -85 11 -9 14 -22 9 -42 l-6 -30 31
16 c16 9 49 16 73 16 24 0 49 4 56 8 7 5 -16 6 -50 4 -35 -2 -67 -8 -73 -13
-15 -15 -23 -10 -18 9 2 10 -3 24 -11 31 -32 27 -7 85 44 104 13 5 13 6 -1 6
-9 1 -28 -10 -43 -24z"/>
<path d="M3207 2641 c40 -25 49 -54 28 -89 l-16 -27 20 24 c12 13 21 31 21 41
0 19 -53 70 -73 70 -7 0 2 -9 20 -19z"/>
<path d="M3148 2363 c7 -3 16 -2 19 1 4 3 -2 6 -13 5 -11 0 -14 -3 -6 -6z"/>
<path d="M3109 2352 c11 -8 10 -12 -5 -21 -11 -6 -14 -10 -9 -10 15 0 62 28
48 29 -6 0 -20 3 -30 6 -14 4 -15 4 -4 -4z"/>
<path d="M3050 2331 c0 -6 4 -13 10 -16 6 -3 7 1 4 9 -7 18 -14 21 -14 7z"/>
<path d="M3430 1940 c0 -5 5 -10 11 -10 5 0 7 5 4 10 -3 6 -8 10 -11 10 -2 0
-4 -4 -4 -10z"/>
<path d="M5627 2004 c-4 -4 -7 -16 -7 -26 0 -13 7 -18 26 -18 21 0 25 4 22 22
-3 23 -27 35 -41 22z"/>
<path d="M3161 1956 c-12 -14 -5 -26 16 -26 15 0 18 26 4 34 -5 3 -14 0 -20
-8z"/>
<path d="M5734 1955 c-3 -8 -3 -19 1 -25 10 -16 35 7 28 26 -7 18 -22 18 -29
-1z"/>
<path d="M5910 1950 c0 -13 5 -20 13 -17 6 2 12 10 12 17 0 7 -6 15 -12 18 -8
2 -13 -5 -13 -18z"/>
<path d="M1933 1653 c9 -2 25 -2 35 0 9 3 1 5 -18 5 -19 0 -27 -2 -17 -5z"/>
<path d="M2048 1653 c20 -8 14 -43 -8 -43 -18 0 -20 -7 -20 -80 0 -79 0 -80
25 -80 l25 0 0 105 c0 94 -2 105 -17 104 -11 0 -13 -3 -5 -6z"/>
<path d="M2088 1653 c7 -3 16 -2 19 1 4 3 -2 6 -13 5 -11 0 -14 -3 -6 -6z"/>
<path d="M2133 1653 c9 -2 25 -2 35 0 9 3 1 5 -18 5 -19 0 -27 -2 -17 -5z"/>
<path d="M2464 1629 l-22 -30 22 -22 c11 -12 28 -33 36 -45 15 -23 15 -22 12
22 -4 44 -3 46 22 46 25 0 26 -3 26 -50 0 -44 3 -50 24 -56 55 -13 59 -3 22
56 -20 30 -36 67 -36 83 0 15 -4 27 -9 27 -4 0 -6 -11 -3 -25 4 -22 1 -25 -22
-25 -21 0 -26 5 -26 25 0 34 -20 31 -46 -6z"/>
<path d="M2687 1640 c-3 -14 -14 -20 -31 -20 -33 0 -32 -8 0 -56 14 -21 30
-47 34 -59 6 -13 9 11 9 68 1 87 -2 104 -12 67z"/>
<path d="M2400 1609 c0 -5 5 -7 10 -4 6 3 10 8 10 11 0 2 -4 4 -10 4 -5 0 -10
-5 -10 -11z"/>
<path d="M1920 1530 c0 -79 0 -80 25 -80 25 0 25 1 25 80 0 79 0 80 -25 80
-25 0 -25 -1 -25 -80z"/>
<path d="M2540 1458 c0 -4 7 -8 15 -8 8 0 15 4 15 8 0 5 -7 9 -15 9 -8 0 -15
-4 -15 -9z"/>
<path d="M2734 1628 c1 -7 10 -14 19 -16 12 -3 15 1 11 13 -5 12 -9 13 -14 5
-6 -9 -9 -9 -13 -1 -3 7 -5 7 -3 -1z"/>
<path d="M3264 973 c-10 -7 -13 -13 -7 -13 7 0 15 5 18 10 4 6 10 8 15 5 5 -3
11 -2 14 3 8 13 -19 10 -40 -5z"/>
<path d="M3040 830 c0 -5 5 -10 10 -10 6 0 10 5 10 10 0 6 -4 10 -10 10 -5 0
-10 -4 -10 -10z"/>
<path d="M3118 1313 c6 -2 18 -2 25 0 6 3 1 5 -13 5 -14 0 -19 -2 -12 -5z"/>
<path d="M3140 1192 c0 -26 -18 -38 -33 -23 -6 6 -15 11 -21 11 -5 0 -1 -6 9
-14 16 -11 17 -17 7 -29 -8 -9 -9 -18 -3 -21 5 -4 13 -1 17 5 5 8 9 8 14 -1 6
-9 10 -6 15 9 5 15 14 21 37 21 24 0 28 3 19 13 -8 10 -7 17 2 27 10 12 9 12
-6 1 -15 -12 -20 -11 -37 4 -19 18 -20 17 -20 -3z"/>
<path d="M3090 1090 c-9 -6 -10 -10 -3 -10 6 0 15 5 18 10 8 12 4 12 -15 0z"/>
<path d="M2635 1100 c-3 -5 -1 -10 4 -10 6 0 11 5 11 10 0 6 -2 10 -4 10 -3 0
-8 -4 -11 -10z"/>
</g>
</svg>
